<?xml version="1.0" encoding="utf-8" standalone="no"?>
<!DOCTYPE svg PUBLIC "-//W3C//DTD SVG 1.1//EN"
  "http://www.w3.org/Graphics/SVG/1.1/DTD/svg11.dtd">
<svg xmlns:xlink="http://www.w3.org/1999/xlink" width="856.533437pt" height="495.969687pt" viewBox="0 0 856.533437 495.969687" xmlns="http://www.w3.org/2000/svg" version="1.1">
 <metadata>
  <rdf:RDF xmlns:dc="http://purl.org/dc/elements/1.1/" xmlns:cc="http://creativecommons.org/ns#" xmlns:rdf="http://www.w3.org/1999/02/22-rdf-syntax-ns#">
   <cc:Work>
    <dc:type rdf:resource="http://purl.org/dc/dcmitype/StillImage"/>
    <dc:date>2026-02-14T14:07:14.191438</dc:date>
    <dc:format>image/svg+xml</dc:format>
    <dc:creator>
     <cc:Agent>
      <dc:title>Matplotlib v3.10.8, https://matplotlib.org/</dc:title>
     </cc:Agent>
    </dc:creator>
   </cc:Work>
  </rdf:RDF>
 </metadata>
 <defs>
  <style type="text/css">*{stroke-linejoin: round; stroke-linecap: butt}</style>
 </defs>
 <g id="figure_1">
  <g id="patch_1">
   <path d="M 0 495.969687 
L 856.533437 495.969687 
L 856.533437 0 
L 0 0 
z
" style="fill: #ffffff"/>
  </g>
  <g id="axes_1">
   <g id="patch_2">
    <path d="M 50.918438 456.477812 
L 849.333438 456.477812 
L 849.333438 23.837812 
L 50.918438 23.837812 
z
" style="fill: #ffffff"/>
   </g>
   <g id="matplotlib.axis_1">
    <g id="xtick_1">
     <g id="line2d_1">
      <path d="M 86.48347 456.477812 
L 86.48347 23.837812 
" clip-path="url(#p2a0f760b70)" style="fill: none; stroke: #b0b0b0; stroke-opacity: 0.3; stroke-width: 0.8; stroke-linecap: square"/>
     </g>
     <g id="line2d_2">
      <defs>
       <path id="m585a855f35" d="M 0 0 
L 0 3.5 
" style="stroke: #000000; stroke-width: 0.8"/>
      </defs>
      <g>
       <use xlink:href="#m585a855f35" x="86.48347" y="456.477812" style="stroke: #000000; stroke-width: 0.8"/>
      </g>
     </g>
     <g id="text_1">
      <!-- 0 -->
      <g transform="translate(83.30222 471.07625) scale(0.1 -0.1)">
       <defs>
        <path id="DejaVuSans-30" d="M 2034 4250 
Q 1547 4250 1301 3770 
Q 1056 3291 1056 2328 
Q 1056 1369 1301 889 
Q 1547 409 2034 409 
Q 2525 409 2770 889 
Q 3016 1369 3016 2328 
Q 3016 3291 2770 3770 
Q 2525 4250 2034 4250 
z
M 2034 4750 
Q 2819 4750 3233 4129 
Q 3647 3509 3647 2328 
Q 3647 1150 3233 529 
Q 2819 -91 2034 -91 
Q 1250 -91 836 529 
Q 422 1150 422 2328 
Q 422 3509 836 4129 
Q 1250 4750 2034 4750 
z
" transform="scale(0.015625)"/>
       </defs>
       <use xlink:href="#DejaVuSans-30"/>
      </g>
     </g>
    </g>
    <g id="xtick_2">
     <g id="line2d_3">
      <path d="M 231.795145 456.477812 
L 231.795145 23.837812 
" clip-path="url(#p2a0f760b70)" style="fill: none; stroke: #b0b0b0; stroke-opacity: 0.3; stroke-width: 0.8; stroke-linecap: square"/>
     </g>
     <g id="line2d_4">
      <g>
       <use xlink:href="#m585a855f35" x="231.795145" y="456.477812" style="stroke: #000000; stroke-width: 0.8"/>
      </g>
     </g>
     <g id="text_2">
      <!-- 200 -->
      <g transform="translate(222.251395 471.07625) scale(0.1 -0.1)">
       <defs>
        <path id="DejaVuSans-32" d="M 1228 531 
L 3431 531 
L 3431 0 
L 469 0 
L 469 531 
Q 828 903 1448 1529 
Q 2069 2156 2228 2338 
Q 2531 2678 2651 2914 
Q 2772 3150 2772 3378 
Q 2772 3750 2511 3984 
Q 2250 4219 1831 4219 
Q 1534 4219 1204 4116 
Q 875 4013 500 3803 
L 500 4441 
Q 881 4594 1212 4672 
Q 1544 4750 1819 4750 
Q 2544 4750 2975 4387 
Q 3406 4025 3406 3419 
Q 3406 3131 3298 2873 
Q 3191 2616 2906 2266 
Q 2828 2175 2409 1742 
Q 1991 1309 1228 531 
z
" transform="scale(0.015625)"/>
       </defs>
       <use xlink:href="#DejaVuSans-32"/>
       <use xlink:href="#DejaVuSans-30" transform="translate(63.623047 0)"/>
       <use xlink:href="#DejaVuSans-30" transform="translate(127.246094 0)"/>
      </g>
     </g>
    </g>
    <g id="xtick_3">
     <g id="line2d_5">
      <path d="M 377.106821 456.477812 
L 377.106821 23.837812 
" clip-path="url(#p2a0f760b70)" style="fill: none; stroke: #b0b0b0; stroke-opacity: 0.3; stroke-width: 0.8; stroke-linecap: square"/>
     </g>
     <g id="line2d_6">
      <g>
       <use xlink:href="#m585a855f35" x="377.106821" y="456.477812" style="stroke: #000000; stroke-width: 0.8"/>
      </g>
     </g>
     <g id="text_3">
      <!-- 400 -->
      <g transform="translate(367.563071 471.07625) scale(0.1 -0.1)">
       <defs>
        <path id="DejaVuSans-34" d="M 2419 4116 
L 825 1625 
L 2419 1625 
L 2419 4116 
z
M 2253 4666 
L 3047 4666 
L 3047 1625 
L 3713 1625 
L 3713 1100 
L 3047 1100 
L 3047 0 
L 2419 0 
L 2419 1100 
L 313 1100 
L 313 1709 
L 2253 4666 
z
" transform="scale(0.015625)"/>
       </defs>
       <use xlink:href="#DejaVuSans-34"/>
       <use xlink:href="#DejaVuSans-30" transform="translate(63.623047 0)"/>
       <use xlink:href="#DejaVuSans-30" transform="translate(127.246094 0)"/>
      </g>
     </g>
    </g>
    <g id="xtick_4">
     <g id="line2d_7">
      <path d="M 522.418496 456.477812 
L 522.418496 23.837812 
" clip-path="url(#p2a0f760b70)" style="fill: none; stroke: #b0b0b0; stroke-opacity: 0.3; stroke-width: 0.8; stroke-linecap: square"/>
     </g>
     <g id="line2d_8">
      <g>
       <use xlink:href="#m585a855f35" x="522.418496" y="456.477812" style="stroke: #000000; stroke-width: 0.8"/>
      </g>
     </g>
     <g id="text_4">
      <!-- 600 -->
      <g transform="translate(512.874746 471.07625) scale(0.1 -0.1)">
       <defs>
        <path id="DejaVuSans-36" d="M 2113 2584 
Q 1688 2584 1439 2293 
Q 1191 2003 1191 1497 
Q 1191 994 1439 701 
Q 1688 409 2113 409 
Q 2538 409 2786 701 
Q 3034 994 3034 1497 
Q 3034 2003 2786 2293 
Q 2538 2584 2113 2584 
z
M 3366 4563 
L 3366 3988 
Q 3128 4100 2886 4159 
Q 2644 4219 2406 4219 
Q 1781 4219 1451 3797 
Q 1122 3375 1075 2522 
Q 1259 2794 1537 2939 
Q 1816 3084 2150 3084 
Q 2853 3084 3261 2657 
Q 3669 2231 3669 1497 
Q 3669 778 3244 343 
Q 2819 -91 2113 -91 
Q 1303 -91 875 529 
Q 447 1150 447 2328 
Q 447 3434 972 4092 
Q 1497 4750 2381 4750 
Q 2619 4750 2861 4703 
Q 3103 4656 3366 4563 
z
" transform="scale(0.015625)"/>
       </defs>
       <use xlink:href="#DejaVuSans-36"/>
       <use xlink:href="#DejaVuSans-30" transform="translate(63.623047 0)"/>
       <use xlink:href="#DejaVuSans-30" transform="translate(127.246094 0)"/>
      </g>
     </g>
    </g>
    <g id="xtick_5">
     <g id="line2d_9">
      <path d="M 667.730171 456.477812 
L 667.730171 23.837812 
" clip-path="url(#p2a0f760b70)" style="fill: none; stroke: #b0b0b0; stroke-opacity: 0.3; stroke-width: 0.8; stroke-linecap: square"/>
     </g>
     <g id="line2d_10">
      <g>
       <use xlink:href="#m585a855f35" x="667.730171" y="456.477812" style="stroke: #000000; stroke-width: 0.8"/>
      </g>
     </g>
     <g id="text_5">
      <!-- 800 -->
      <g transform="translate(658.186421 471.07625) scale(0.1 -0.1)">
       <defs>
        <path id="DejaVuSans-38" d="M 2034 2216 
Q 1584 2216 1326 1975 
Q 1069 1734 1069 1313 
Q 1069 891 1326 650 
Q 1584 409 2034 409 
Q 2484 409 2743 651 
Q 3003 894 3003 1313 
Q 3003 1734 2745 1975 
Q 2488 2216 2034 2216 
z
M 1403 2484 
Q 997 2584 770 2862 
Q 544 3141 544 3541 
Q 544 4100 942 4425 
Q 1341 4750 2034 4750 
Q 2731 4750 3128 4425 
Q 3525 4100 3525 3541 
Q 3525 3141 3298 2862 
Q 3072 2584 2669 2484 
Q 3125 2378 3379 2068 
Q 3634 1759 3634 1313 
Q 3634 634 3220 271 
Q 2806 -91 2034 -91 
Q 1263 -91 848 271 
Q 434 634 434 1313 
Q 434 1759 690 2068 
Q 947 2378 1403 2484 
z
M 1172 3481 
Q 1172 3119 1398 2916 
Q 1625 2713 2034 2713 
Q 2441 2713 2670 2916 
Q 2900 3119 2900 3481 
Q 2900 3844 2670 4047 
Q 2441 4250 2034 4250 
Q 1625 4250 1398 4047 
Q 1172 3844 1172 3481 
z
" transform="scale(0.015625)"/>
       </defs>
       <use xlink:href="#DejaVuSans-38"/>
       <use xlink:href="#DejaVuSans-30" transform="translate(63.623047 0)"/>
       <use xlink:href="#DejaVuSans-30" transform="translate(127.246094 0)"/>
      </g>
     </g>
    </g>
    <g id="xtick_6">
     <g id="line2d_11">
      <path d="M 813.041847 456.477812 
L 813.041847 23.837812 
" clip-path="url(#p2a0f760b70)" style="fill: none; stroke: #b0b0b0; stroke-opacity: 0.3; stroke-width: 0.8; stroke-linecap: square"/>
     </g>
     <g id="line2d_12">
      <g>
       <use xlink:href="#m585a855f35" x="813.041847" y="456.477812" style="stroke: #000000; stroke-width: 0.8"/>
      </g>
     </g>
     <g id="text_6">
      <!-- 1000 -->
      <g transform="translate(800.316847 471.07625) scale(0.1 -0.1)">
       <defs>
        <path id="DejaVuSans-31" d="M 794 531 
L 1825 531 
L 1825 4091 
L 703 3866 
L 703 4441 
L 1819 4666 
L 2450 4666 
L 2450 531 
L 3481 531 
L 3481 0 
L 794 0 
L 794 531 
z
" transform="scale(0.015625)"/>
       </defs>
       <use xlink:href="#DejaVuSans-31"/>
       <use xlink:href="#DejaVuSans-30" transform="translate(63.623047 0)"/>
       <use xlink:href="#DejaVuSans-30" transform="translate(127.246094 0)"/>
       <use xlink:href="#DejaVuSans-30" transform="translate(190.869141 0)"/>
      </g>
     </g>
    </g>
    <g id="text_7">
     <!-- Number of Samples -->
     <g transform="translate(383.734063 486.274062) scale(0.12 -0.12)">
      <defs>
       <path id="DejaVuSans-Bold-4e" d="M 588 4666 
L 1931 4666 
L 3628 1466 
L 3628 4666 
L 4769 4666 
L 4769 0 
L 3425 0 
L 1728 3200 
L 1728 0 
L 588 0 
L 588 4666 
z
" transform="scale(0.015625)"/>
       <path id="DejaVuSans-Bold-75" d="M 500 1363 
L 500 3500 
L 1625 3500 
L 1625 3150 
Q 1625 2866 1622 2436 
Q 1619 2006 1619 1863 
Q 1619 1441 1641 1255 
Q 1663 1069 1716 984 
Q 1784 875 1895 815 
Q 2006 756 2150 756 
Q 2500 756 2700 1025 
Q 2900 1294 2900 1772 
L 2900 3500 
L 4019 3500 
L 4019 0 
L 2900 0 
L 2900 506 
Q 2647 200 2364 54 
Q 2081 -91 1741 -91 
Q 1134 -91 817 281 
Q 500 653 500 1363 
z
" transform="scale(0.015625)"/>
       <path id="DejaVuSans-Bold-6d" d="M 3781 2919 
Q 3994 3244 4286 3414 
Q 4578 3584 4928 3584 
Q 5531 3584 5847 3212 
Q 6163 2841 6163 2131 
L 6163 0 
L 5038 0 
L 5038 1825 
Q 5041 1866 5042 1909 
Q 5044 1953 5044 2034 
Q 5044 2406 4934 2573 
Q 4825 2741 4581 2741 
Q 4263 2741 4089 2478 
Q 3916 2216 3909 1719 
L 3909 0 
L 2784 0 
L 2784 1825 
Q 2784 2406 2684 2573 
Q 2584 2741 2328 2741 
Q 2006 2741 1831 2477 
Q 1656 2213 1656 1722 
L 1656 0 
L 531 0 
L 531 3500 
L 1656 3500 
L 1656 2988 
Q 1863 3284 2130 3434 
Q 2397 3584 2719 3584 
Q 3081 3584 3359 3409 
Q 3638 3234 3781 2919 
z
" transform="scale(0.015625)"/>
       <path id="DejaVuSans-Bold-62" d="M 2400 722 
Q 2759 722 2948 984 
Q 3138 1247 3138 1747 
Q 3138 2247 2948 2509 
Q 2759 2772 2400 2772 
Q 2041 2772 1848 2508 
Q 1656 2244 1656 1747 
Q 1656 1250 1848 986 
Q 2041 722 2400 722 
z
M 1656 2988 
Q 1888 3294 2169 3439 
Q 2450 3584 2816 3584 
Q 3463 3584 3878 3070 
Q 4294 2556 4294 1747 
Q 4294 938 3878 423 
Q 3463 -91 2816 -91 
Q 2450 -91 2169 54 
Q 1888 200 1656 506 
L 1656 0 
L 538 0 
L 538 4863 
L 1656 4863 
L 1656 2988 
z
" transform="scale(0.015625)"/>
       <path id="DejaVuSans-Bold-65" d="M 4031 1759 
L 4031 1441 
L 1416 1441 
Q 1456 1047 1700 850 
Q 1944 653 2381 653 
Q 2734 653 3104 758 
Q 3475 863 3866 1075 
L 3866 213 
Q 3469 63 3072 -14 
Q 2675 -91 2278 -91 
Q 1328 -91 801 392 
Q 275 875 275 1747 
Q 275 2603 792 3093 
Q 1309 3584 2216 3584 
Q 3041 3584 3536 3087 
Q 4031 2591 4031 1759 
z
M 2881 2131 
Q 2881 2450 2695 2645 
Q 2509 2841 2209 2841 
Q 1884 2841 1681 2658 
Q 1478 2475 1428 2131 
L 2881 2131 
z
" transform="scale(0.015625)"/>
       <path id="DejaVuSans-Bold-72" d="M 3138 2547 
Q 2991 2616 2845 2648 
Q 2700 2681 2553 2681 
Q 2122 2681 1889 2404 
Q 1656 2128 1656 1613 
L 1656 0 
L 538 0 
L 538 3500 
L 1656 3500 
L 1656 2925 
Q 1872 3269 2151 3426 
Q 2431 3584 2822 3584 
Q 2878 3584 2943 3579 
Q 3009 3575 3134 3559 
L 3138 2547 
z
" transform="scale(0.015625)"/>
       <path id="DejaVuSans-Bold-20" transform="scale(0.015625)"/>
       <path id="DejaVuSans-Bold-6f" d="M 2203 2784 
Q 1831 2784 1636 2517 
Q 1441 2250 1441 1747 
Q 1441 1244 1636 976 
Q 1831 709 2203 709 
Q 2569 709 2762 976 
Q 2956 1244 2956 1747 
Q 2956 2250 2762 2517 
Q 2569 2784 2203 2784 
z
M 2203 3584 
Q 3106 3584 3614 3096 
Q 4122 2609 4122 1747 
Q 4122 884 3614 396 
Q 3106 -91 2203 -91 
Q 1297 -91 786 396 
Q 275 884 275 1747 
Q 275 2609 786 3096 
Q 1297 3584 2203 3584 
z
" transform="scale(0.015625)"/>
       <path id="DejaVuSans-Bold-66" d="M 2841 4863 
L 2841 4128 
L 2222 4128 
Q 1984 4128 1890 4042 
Q 1797 3956 1797 3744 
L 1797 3500 
L 2753 3500 
L 2753 2700 
L 1797 2700 
L 1797 0 
L 678 0 
L 678 2700 
L 122 2700 
L 122 3500 
L 678 3500 
L 678 3744 
Q 678 4316 997 4589 
Q 1316 4863 1984 4863 
L 2841 4863 
z
" transform="scale(0.015625)"/>
       <path id="DejaVuSans-Bold-53" d="M 3834 4519 
L 3834 3531 
Q 3450 3703 3084 3790 
Q 2719 3878 2394 3878 
Q 1963 3878 1756 3759 
Q 1550 3641 1550 3391 
Q 1550 3203 1689 3098 
Q 1828 2994 2194 2919 
L 2706 2816 
Q 3484 2659 3812 2340 
Q 4141 2022 4141 1434 
Q 4141 663 3683 286 
Q 3225 -91 2284 -91 
Q 1841 -91 1394 -6 
Q 947 78 500 244 
L 500 1259 
Q 947 1022 1364 901 
Q 1781 781 2169 781 
Q 2563 781 2772 912 
Q 2981 1044 2981 1288 
Q 2981 1506 2839 1625 
Q 2697 1744 2272 1838 
L 1806 1941 
Q 1106 2091 782 2419 
Q 459 2747 459 3303 
Q 459 4000 909 4375 
Q 1359 4750 2203 4750 
Q 2588 4750 2994 4692 
Q 3400 4634 3834 4519 
z
" transform="scale(0.015625)"/>
       <path id="DejaVuSans-Bold-61" d="M 2106 1575 
Q 1756 1575 1579 1456 
Q 1403 1338 1403 1106 
Q 1403 894 1545 773 
Q 1688 653 1941 653 
Q 2256 653 2472 879 
Q 2688 1106 2688 1447 
L 2688 1575 
L 2106 1575 
z
M 3816 1997 
L 3816 0 
L 2688 0 
L 2688 519 
Q 2463 200 2181 54 
Q 1900 -91 1497 -91 
Q 953 -91 614 226 
Q 275 544 275 1050 
Q 275 1666 698 1953 
Q 1122 2241 2028 2241 
L 2688 2241 
L 2688 2328 
Q 2688 2594 2478 2717 
Q 2269 2841 1825 2841 
Q 1466 2841 1156 2769 
Q 847 2697 581 2553 
L 581 3406 
Q 941 3494 1303 3539 
Q 1666 3584 2028 3584 
Q 2975 3584 3395 3211 
Q 3816 2838 3816 1997 
z
" transform="scale(0.015625)"/>
       <path id="DejaVuSans-Bold-70" d="M 1656 506 
L 1656 -1331 
L 538 -1331 
L 538 3500 
L 1656 3500 
L 1656 2988 
Q 1888 3294 2169 3439 
Q 2450 3584 2816 3584 
Q 3463 3584 3878 3070 
Q 4294 2556 4294 1747 
Q 4294 938 3878 423 
Q 3463 -91 2816 -91 
Q 2450 -91 2169 54 
Q 1888 200 1656 506 
z
M 2400 2772 
Q 2041 2772 1848 2508 
Q 1656 2244 1656 1747 
Q 1656 1250 1848 986 
Q 2041 722 2400 722 
Q 2759 722 2948 984 
Q 3138 1247 3138 1747 
Q 3138 2247 2948 2509 
Q 2759 2772 2400 2772 
z
" transform="scale(0.015625)"/>
       <path id="DejaVuSans-Bold-6c" d="M 538 4863 
L 1656 4863 
L 1656 0 
L 538 0 
L 538 4863 
z
" transform="scale(0.015625)"/>
       <path id="DejaVuSans-Bold-73" d="M 3272 3391 
L 3272 2541 
Q 2913 2691 2578 2766 
Q 2244 2841 1947 2841 
Q 1628 2841 1473 2761 
Q 1319 2681 1319 2516 
Q 1319 2381 1436 2309 
Q 1553 2238 1856 2203 
L 2053 2175 
Q 2913 2066 3209 1816 
Q 3506 1566 3506 1031 
Q 3506 472 3093 190 
Q 2681 -91 1863 -91 
Q 1516 -91 1145 -36 
Q 775 19 384 128 
L 384 978 
Q 719 816 1070 734 
Q 1422 653 1784 653 
Q 2113 653 2278 743 
Q 2444 834 2444 1013 
Q 2444 1163 2330 1236 
Q 2216 1309 1875 1350 
L 1678 1375 
Q 931 1469 631 1722 
Q 331 1975 331 2491 
Q 331 3047 712 3315 
Q 1094 3584 1881 3584 
Q 2191 3584 2531 3537 
Q 2872 3491 3272 3391 
z
" transform="scale(0.015625)"/>
      </defs>
      <use xlink:href="#DejaVuSans-Bold-4e"/>
      <use xlink:href="#DejaVuSans-Bold-75" transform="translate(83.691406 0)"/>
      <use xlink:href="#DejaVuSans-Bold-6d" transform="translate(154.882812 0)"/>
      <use xlink:href="#DejaVuSans-Bold-62" transform="translate(259.082031 0)"/>
      <use xlink:href="#DejaVuSans-Bold-65" transform="translate(330.664062 0)"/>
      <use xlink:href="#DejaVuSans-Bold-72" transform="translate(398.486328 0)"/>
      <use xlink:href="#DejaVuSans-Bold-20" transform="translate(447.802734 0)"/>
      <use xlink:href="#DejaVuSans-Bold-6f" transform="translate(482.617188 0)"/>
      <use xlink:href="#DejaVuSans-Bold-66" transform="translate(551.318359 0)"/>
      <use xlink:href="#DejaVuSans-Bold-20" transform="translate(594.824219 0)"/>
      <use xlink:href="#DejaVuSans-Bold-53" transform="translate(629.638672 0)"/>
      <use xlink:href="#DejaVuSans-Bold-61" transform="translate(701.660156 0)"/>
      <use xlink:href="#DejaVuSans-Bold-6d" transform="translate(769.140625 0)"/>
      <use xlink:href="#DejaVuSans-Bold-70" transform="translate(873.339844 0)"/>
      <use xlink:href="#DejaVuSans-Bold-6c" transform="translate(944.921875 0)"/>
      <use xlink:href="#DejaVuSans-Bold-65" transform="translate(979.199219 0)"/>
      <use xlink:href="#DejaVuSans-Bold-73" transform="translate(1047.021484 0)"/>
     </g>
    </g>
   </g>
   <g id="matplotlib.axis_2">
    <g id="ytick_1">
     <g id="line2d_13">
      <path d="M 50.918438 403.751502 
L 849.333438 403.751502 
" clip-path="url(#p2a0f760b70)" style="fill: none; stroke: #b0b0b0; stroke-opacity: 0.3; stroke-width: 0.8; stroke-linecap: square"/>
     </g>
     <g id="line2d_14">
      <defs>
       <path id="mf93977d135" d="M 0 0 
L -3.5 0 
" style="stroke: #000000; stroke-width: 0.8"/>
      </defs>
      <g>
       <use xlink:href="#mf93977d135" x="50.918438" y="403.751502" style="stroke: #000000; stroke-width: 0.8"/>
      </g>
     </g>
     <g id="text_8">
      <!-- −20 -->
      <g transform="translate(22.81375 407.550721) scale(0.1 -0.1)">
       <defs>
        <path id="DejaVuSans-2212" d="M 678 2272 
L 4684 2272 
L 4684 1741 
L 678 1741 
L 678 2272 
z
" transform="scale(0.015625)"/>
       </defs>
       <use xlink:href="#DejaVuSans-2212"/>
       <use xlink:href="#DejaVuSans-32" transform="translate(83.789062 0)"/>
       <use xlink:href="#DejaVuSans-30" transform="translate(147.412109 0)"/>
      </g>
     </g>
    </g>
    <g id="ytick_2">
     <g id="line2d_15">
      <path d="M 50.918438 335.322588 
L 849.333438 335.322588 
" clip-path="url(#p2a0f760b70)" style="fill: none; stroke: #b0b0b0; stroke-opacity: 0.3; stroke-width: 0.8; stroke-linecap: square"/>
     </g>
     <g id="line2d_16">
      <g>
       <use xlink:href="#mf93977d135" x="50.918438" y="335.322588" style="stroke: #000000; stroke-width: 0.8"/>
      </g>
     </g>
     <g id="text_9">
      <!-- −10 -->
      <g transform="translate(22.81375 339.121806) scale(0.1 -0.1)">
       <use xlink:href="#DejaVuSans-2212"/>
       <use xlink:href="#DejaVuSans-31" transform="translate(83.789062 0)"/>
       <use xlink:href="#DejaVuSans-30" transform="translate(147.412109 0)"/>
      </g>
     </g>
    </g>
    <g id="ytick_3">
     <g id="line2d_17">
      <path d="M 50.918438 266.893673 
L 849.333438 266.893673 
" clip-path="url(#p2a0f760b70)" style="fill: none; stroke: #b0b0b0; stroke-opacity: 0.3; stroke-width: 0.8; stroke-linecap: square"/>
     </g>
     <g id="line2d_18">
      <g>
       <use xlink:href="#mf93977d135" x="50.918438" y="266.893673" style="stroke: #000000; stroke-width: 0.8"/>
      </g>
     </g>
     <g id="text_10">
      <!-- 0 -->
      <g transform="translate(37.555938 270.692892) scale(0.1 -0.1)">
       <use xlink:href="#DejaVuSans-30"/>
      </g>
     </g>
    </g>
    <g id="ytick_4">
     <g id="line2d_19">
      <path d="M 50.918438 198.464758 
L 849.333438 198.464758 
" clip-path="url(#p2a0f760b70)" style="fill: none; stroke: #b0b0b0; stroke-opacity: 0.3; stroke-width: 0.8; stroke-linecap: square"/>
     </g>
     <g id="line2d_20">
      <g>
       <use xlink:href="#mf93977d135" x="50.918438" y="198.464758" style="stroke: #000000; stroke-width: 0.8"/>
      </g>
     </g>
     <g id="text_11">
      <!-- 10 -->
      <g transform="translate(31.193438 202.263977) scale(0.1 -0.1)">
       <use xlink:href="#DejaVuSans-31"/>
       <use xlink:href="#DejaVuSans-30" transform="translate(63.623047 0)"/>
      </g>
     </g>
    </g>
    <g id="ytick_5">
     <g id="line2d_21">
      <path d="M 50.918438 130.035843 
L 849.333438 130.035843 
" clip-path="url(#p2a0f760b70)" style="fill: none; stroke: #b0b0b0; stroke-opacity: 0.3; stroke-width: 0.8; stroke-linecap: square"/>
     </g>
     <g id="line2d_22">
      <g>
       <use xlink:href="#mf93977d135" x="50.918438" y="130.035843" style="stroke: #000000; stroke-width: 0.8"/>
      </g>
     </g>
     <g id="text_12">
      <!-- 20 -->
      <g transform="translate(31.193438 133.835062) scale(0.1 -0.1)">
       <use xlink:href="#DejaVuSans-32"/>
       <use xlink:href="#DejaVuSans-30" transform="translate(63.623047 0)"/>
      </g>
     </g>
    </g>
    <g id="ytick_6">
     <g id="line2d_23">
      <path d="M 50.918438 61.606929 
L 849.333438 61.606929 
" clip-path="url(#p2a0f760b70)" style="fill: none; stroke: #b0b0b0; stroke-opacity: 0.3; stroke-width: 0.8; stroke-linecap: square"/>
     </g>
     <g id="line2d_24">
      <g>
       <use xlink:href="#mf93977d135" x="50.918438" y="61.606929" style="stroke: #000000; stroke-width: 0.8"/>
      </g>
     </g>
     <g id="text_13">
      <!-- 30 -->
      <g transform="translate(31.193438 65.406148) scale(0.1 -0.1)">
       <defs>
        <path id="DejaVuSans-33" d="M 2597 2516 
Q 3050 2419 3304 2112 
Q 3559 1806 3559 1356 
Q 3559 666 3084 287 
Q 2609 -91 1734 -91 
Q 1441 -91 1130 -33 
Q 819 25 488 141 
L 488 750 
Q 750 597 1062 519 
Q 1375 441 1716 441 
Q 2309 441 2620 675 
Q 2931 909 2931 1356 
Q 2931 1769 2642 2001 
Q 2353 2234 1838 2234 
L 1294 2234 
L 1294 2753 
L 1863 2753 
Q 2328 2753 2575 2939 
Q 2822 3125 2822 3475 
Q 2822 3834 2567 4026 
Q 2313 4219 1838 4219 
Q 1578 4219 1281 4162 
Q 984 4106 628 3988 
L 628 4550 
Q 988 4650 1302 4700 
Q 1616 4750 1894 4750 
Q 2613 4750 3031 4423 
Q 3450 4097 3450 3541 
Q 3450 3153 3228 2886 
Q 3006 2619 2597 2516 
z
" transform="scale(0.015625)"/>
       </defs>
       <use xlink:href="#DejaVuSans-33"/>
       <use xlink:href="#DejaVuSans-30" transform="translate(63.623047 0)"/>
      </g>
     </g>
    </g>
    <g id="text_14">
     <!-- Cumulative Relative Error (%) -->
     <g transform="translate(16.318125 340.92875) rotate(-90) scale(0.12 -0.12)">
      <defs>
       <path id="DejaVuSans-Bold-43" d="M 4288 256 
Q 3956 84 3597 -3 
Q 3238 -91 2847 -91 
Q 1681 -91 1000 561 
Q 319 1213 319 2328 
Q 319 3447 1000 4098 
Q 1681 4750 2847 4750 
Q 3238 4750 3597 4662 
Q 3956 4575 4288 4403 
L 4288 3438 
Q 3953 3666 3628 3772 
Q 3303 3878 2944 3878 
Q 2300 3878 1931 3465 
Q 1563 3053 1563 2328 
Q 1563 1606 1931 1193 
Q 2300 781 2944 781 
Q 3303 781 3628 887 
Q 3953 994 4288 1222 
L 4288 256 
z
" transform="scale(0.015625)"/>
       <path id="DejaVuSans-Bold-74" d="M 1759 4494 
L 1759 3500 
L 2913 3500 
L 2913 2700 
L 1759 2700 
L 1759 1216 
Q 1759 972 1856 886 
Q 1953 800 2241 800 
L 2816 800 
L 2816 0 
L 1856 0 
Q 1194 0 917 276 
Q 641 553 641 1216 
L 641 2700 
L 84 2700 
L 84 3500 
L 641 3500 
L 641 4494 
L 1759 4494 
z
" transform="scale(0.015625)"/>
       <path id="DejaVuSans-Bold-69" d="M 538 3500 
L 1656 3500 
L 1656 0 
L 538 0 
L 538 3500 
z
M 538 4863 
L 1656 4863 
L 1656 3950 
L 538 3950 
L 538 4863 
z
" transform="scale(0.015625)"/>
       <path id="DejaVuSans-Bold-76" d="M 97 3500 
L 1216 3500 
L 2088 1081 
L 2956 3500 
L 4078 3500 
L 2700 0 
L 1472 0 
L 97 3500 
z
" transform="scale(0.015625)"/>
       <path id="DejaVuSans-Bold-52" d="M 2297 2597 
Q 2675 2597 2839 2737 
Q 3003 2878 3003 3200 
Q 3003 3519 2839 3656 
Q 2675 3794 2297 3794 
L 1791 3794 
L 1791 2597 
L 2297 2597 
z
M 1791 1766 
L 1791 0 
L 588 0 
L 588 4666 
L 2425 4666 
Q 3347 4666 3776 4356 
Q 4206 4047 4206 3378 
Q 4206 2916 3982 2619 
Q 3759 2322 3309 2181 
Q 3556 2125 3751 1926 
Q 3947 1728 4147 1325 
L 4800 0 
L 3519 0 
L 2950 1159 
Q 2778 1509 2601 1637 
Q 2425 1766 2131 1766 
L 1791 1766 
z
" transform="scale(0.015625)"/>
       <path id="DejaVuSans-Bold-45" d="M 588 4666 
L 3834 4666 
L 3834 3756 
L 1791 3756 
L 1791 2888 
L 3713 2888 
L 3713 1978 
L 1791 1978 
L 1791 909 
L 3903 909 
L 3903 0 
L 588 0 
L 588 4666 
z
" transform="scale(0.015625)"/>
       <path id="DejaVuSans-Bold-28" d="M 2413 -844 
L 1484 -844 
Q 1006 -72 778 623 
Q 550 1319 550 2003 
Q 550 2688 779 3389 
Q 1009 4091 1484 4856 
L 2413 4856 
Q 2013 4116 1813 3408 
Q 1613 2700 1613 2009 
Q 1613 1319 1811 609 
Q 2009 -100 2413 -844 
z
" transform="scale(0.015625)"/>
       <path id="DejaVuSans-Bold-25" d="M 4959 1925 
Q 4738 1925 4616 1733 
Q 4494 1541 4494 1184 
Q 4494 825 4614 633 
Q 4734 441 4959 441 
Q 5184 441 5303 633 
Q 5422 825 5422 1184 
Q 5422 1541 5301 1733 
Q 5181 1925 4959 1925 
z
M 4959 2450 
Q 5541 2450 5875 2112 
Q 6209 1775 6209 1184 
Q 6209 594 5875 251 
Q 5541 -91 4959 -91 
Q 4378 -91 4042 251 
Q 3706 594 3706 1184 
Q 3706 1772 4042 2111 
Q 4378 2450 4959 2450 
z
M 2094 -91 
L 1403 -91 
L 4319 4750 
L 5013 4750 
L 2094 -91 
z
M 1453 4750 
Q 2034 4750 2367 4411 
Q 2700 4072 2700 3481 
Q 2700 2891 2367 2550 
Q 2034 2209 1453 2209 
Q 872 2209 539 2550 
Q 206 2891 206 3481 
Q 206 4072 539 4411 
Q 872 4750 1453 4750 
z
M 1453 4225 
Q 1228 4225 1106 4031 
Q 984 3838 984 3481 
Q 984 3122 1106 2926 
Q 1228 2731 1453 2731 
Q 1678 2731 1798 2926 
Q 1919 3122 1919 3481 
Q 1919 3838 1797 4031 
Q 1675 4225 1453 4225 
z
" transform="scale(0.015625)"/>
       <path id="DejaVuSans-Bold-29" d="M 513 -844 
Q 913 -100 1113 609 
Q 1313 1319 1313 2009 
Q 1313 2700 1113 3408 
Q 913 4116 513 4856 
L 1441 4856 
Q 1916 4091 2145 3389 
Q 2375 2688 2375 2003 
Q 2375 1319 2147 623 
Q 1919 -72 1441 -844 
L 513 -844 
z
" transform="scale(0.015625)"/>
      </defs>
      <use xlink:href="#DejaVuSans-Bold-43"/>
      <use xlink:href="#DejaVuSans-Bold-75" transform="translate(73.388672 0)"/>
      <use xlink:href="#DejaVuSans-Bold-6d" transform="translate(144.580078 0)"/>
      <use xlink:href="#DejaVuSans-Bold-75" transform="translate(248.779297 0)"/>
      <use xlink:href="#DejaVuSans-Bold-6c" transform="translate(319.970703 0)"/>
      <use xlink:href="#DejaVuSans-Bold-61" transform="translate(354.248047 0)"/>
      <use xlink:href="#DejaVuSans-Bold-74" transform="translate(421.728516 0)"/>
      <use xlink:href="#DejaVuSans-Bold-69" transform="translate(469.53125 0)"/>
      <use xlink:href="#DejaVuSans-Bold-76" transform="translate(503.808594 0)"/>
      <use xlink:href="#DejaVuSans-Bold-65" transform="translate(568.994141 0)"/>
      <use xlink:href="#DejaVuSans-Bold-20" transform="translate(636.816406 0)"/>
      <use xlink:href="#DejaVuSans-Bold-52" transform="translate(671.630859 0)"/>
      <use xlink:href="#DejaVuSans-Bold-65" transform="translate(748.632812 0)"/>
      <use xlink:href="#DejaVuSans-Bold-6c" transform="translate(816.455078 0)"/>
      <use xlink:href="#DejaVuSans-Bold-61" transform="translate(850.732422 0)"/>
      <use xlink:href="#DejaVuSans-Bold-74" transform="translate(918.212891 0)"/>
      <use xlink:href="#DejaVuSans-Bold-69" transform="translate(966.015625 0)"/>
      <use xlink:href="#DejaVuSans-Bold-76" transform="translate(1000.292969 0)"/>
      <use xlink:href="#DejaVuSans-Bold-65" transform="translate(1065.478516 0)"/>
      <use xlink:href="#DejaVuSans-Bold-20" transform="translate(1133.300781 0)"/>
      <use xlink:href="#DejaVuSans-Bold-45" transform="translate(1168.115234 0)"/>
      <use xlink:href="#DejaVuSans-Bold-72" transform="translate(1236.425781 0)"/>
      <use xlink:href="#DejaVuSans-Bold-72" transform="translate(1285.742188 0)"/>
      <use xlink:href="#DejaVuSans-Bold-6f" transform="translate(1335.058594 0)"/>
      <use xlink:href="#DejaVuSans-Bold-72" transform="translate(1403.759766 0)"/>
      <use xlink:href="#DejaVuSans-Bold-20" transform="translate(1453.076172 0)"/>
      <use xlink:href="#DejaVuSans-Bold-28" transform="translate(1487.890625 0)"/>
      <use xlink:href="#DejaVuSans-Bold-25" transform="translate(1533.59375 0)"/>
      <use xlink:href="#DejaVuSans-Bold-29" transform="translate(1633.789062 0)"/>
     </g>
    </g>
   </g>
   <g id="line2d_25">
    <path d="M 87.210028 106.496189 
L 87.936587 54.799709 
L 88.663145 55.40538 
L 89.389704 50.425343 
L 90.116262 43.503267 
L 90.84282 81.576478 
L 91.569379 85.935507 
L 92.295937 99.169917 
L 93.022495 124.417807 
L 93.749054 125.736291 
L 94.475612 123.448124 
L 95.202171 126.813426 
L 95.928729 131.836357 
L 96.655287 144.657183 
L 97.381846 133.906893 
L 98.108404 142.562784 
L 98.834962 136.16321 
L 99.561521 137.585519 
L 101.014638 118.516614 
L 101.741196 130.500018 
L 102.467754 118.805122 
L 103.194313 127.87358 
L 103.920871 127.459982 
L 104.647429 133.047186 
L 105.373988 127.517449 
L 106.100546 126.606726 
L 106.827105 125.419725 
L 107.553663 131.140134 
L 108.280221 134.349565 
L 109.00678 125.285836 
L 109.733338 126.356526 
L 110.459896 119.309951 
L 111.186455 116.370149 
L 111.913013 111.437714 
L 112.639572 110.495457 
L 113.36613 109.765626 
L 114.092688 110.902787 
L 114.819247 117.041406 
L 115.545805 114.519915 
L 116.272363 116.988226 
L 116.998922 116.302119 
L 117.72548 118.260894 
L 118.452039 116.450935 
L 119.178597 112.366154 
L 119.905155 119.047119 
L 120.631714 118.741241 
L 121.358272 118.26174 
L 122.08483 116.82747 
L 122.811389 120.405891 
L 123.537947 117.694189 
L 124.264506 116.039414 
L 124.991064 116.697128 
L 125.717622 122.383561 
L 126.444181 122.22786 
L 127.170739 120.403348 
L 127.897297 121.181813 
L 128.623856 118.342578 
L 129.350414 114.614842 
L 130.076973 118.748631 
L 130.803531 114.852529 
L 131.530089 117.318166 
L 132.256648 118.096246 
L 132.983206 117.905882 
L 133.709765 119.967108 
L 134.436323 119.53712 
L 135.162881 117.55478 
L 135.88944 118.942524 
L 137.342556 125.820426 
L 138.069115 121.542638 
L 138.795673 123.605488 
L 139.522232 123.72719 
L 140.24879 124.555656 
L 140.975348 124.573046 
L 141.701907 123.680401 
L 142.428465 124.445043 
L 143.155023 126.912 
L 143.881582 127.141051 
L 144.60814 126.059517 
L 145.334699 125.416752 
L 146.061257 124.261159 
L 146.787815 123.676772 
L 147.514374 123.323206 
L 148.240932 121.748038 
L 148.96749 123.04036 
L 149.694049 121.782899 
L 150.420607 121.547938 
L 151.147166 121.19455 
L 151.873724 120.198961 
L 153.326841 124.875732 
L 154.053399 124.63842 
L 155.506516 127.360725 
L 156.233074 126.707901 
L 156.959633 127.728963 
L 157.686191 125.631393 
L 158.412749 124.64227 
L 159.139308 123.324477 
L 160.592424 127.824212 
L 161.318983 127.348662 
L 162.045541 127.893272 
L 162.7721 128.296918 
L 163.498658 130.1161 
L 164.225216 131.04215 
L 164.951775 130.750498 
L 165.678333 128.816234 
L 166.404891 129.020356 
L 167.13145 130.008829 
L 167.858008 128.89347 
L 168.584567 128.054662 
L 169.311125 129.571757 
L 170.037683 129.781146 
L 170.764242 130.627416 
L 171.4908 130.954797 
L 172.217358 132.418424 
L 172.943917 130.588984 
L 173.670475 130.011054 
L 174.397034 128.260458 
L 175.123592 127.863111 
L 175.85015 127.291565 
L 176.576709 125.016411 
L 177.303267 123.802383 
L 178.029825 124.57796 
L 178.756384 123.705804 
L 179.482942 124.315263 
L 180.936059 126.350077 
L 181.662617 126.674295 
L 183.115734 123.048409 
L 184.568851 120.78398 
L 185.295409 121.716166 
L 186.021968 120.653659 
L 187.475084 121.079623 
L 188.201643 121.001527 
L 188.928201 119.356815 
L 189.65476 118.678432 
L 190.381318 117.403054 
L 191.107876 118.168087 
L 191.834435 117.848656 
L 192.560993 118.422982 
L 193.287551 120.597652 
L 194.01411 120.843239 
L 194.740668 121.271465 
L 195.467227 122.023949 
L 196.193785 122.944655 
L 196.920343 123.190486 
L 197.646902 122.757815 
L 199.100018 125.609982 
L 200.553135 123.662697 
L 201.279694 125.12147 
L 203.459369 122.855261 
L 204.185927 122.9202 
L 204.912485 124.729398 
L 205.639044 124.941551 
L 206.365602 125.53094 
L 207.818719 125.227308 
L 208.545277 125.791429 
L 209.271836 124.854409 
L 209.998394 124.804927 
L 210.724952 125.707662 
L 212.178069 123.133909 
L 212.904628 123.551477 
L 214.357744 123.737779 
L 215.084303 123.965194 
L 215.810861 125.596451 
L 216.537419 125.568909 
L 217.263978 125.421393 
L 217.990536 126.645483 
L 218.717095 126.86783 
L 219.443653 125.964196 
L 220.170211 127.444867 
L 220.89677 126.637803 
L 221.623328 126.19138 
L 222.349886 126.611965 
L 223.076445 127.387849 
L 223.803003 126.939057 
L 225.25612 125.394742 
L 225.982678 125.706973 
L 227.435795 125.741127 
L 228.888912 126.699054 
L 230.342029 126.139954 
L 231.068587 125.101863 
L 232.521704 126.412163 
L 233.248262 126.365051 
L 233.97482 125.634196 
L 234.701379 126.174717 
L 235.427937 126.324828 
L 236.154496 127.078062 
L 237.607612 129.436527 
L 238.334171 128.990338 
L 239.060729 129.198906 
L 239.787287 128.338328 
L 240.513846 129.325338 
L 241.966963 130.647998 
L 242.693521 131.056231 
L 243.420079 131.067079 
L 244.873196 130.230466 
L 245.599754 130.711358 
L 246.326313 131.397481 
L 247.052871 131.430768 
L 247.77943 132.392773 
L 248.505988 131.940296 
L 249.232546 133.091188 
L 249.959105 133.126568 
L 250.685663 132.889917 
L 251.412222 132.966142 
L 252.865338 130.834724 
L 253.591897 130.701556 
L 254.318455 130.316443 
L 255.045013 129.673482 
L 255.771572 129.286861 
L 256.49813 128.477499 
L 260.130922 129.064209 
L 260.85748 128.683431 
L 261.584039 129.331564 
L 262.310597 129.365145 
L 263.037156 128.813859 
L 263.763714 128.981092 
L 264.490272 128.870796 
L 265.943389 128.190707 
L 266.669947 128.508046 
L 267.396506 129.650659 
L 268.123064 129.250281 
L 270.302739 128.724881 
L 271.029298 128.315358 
L 271.755856 127.294358 
L 272.482414 127.855973 
L 273.208973 128.725947 
L 273.935531 128.493888 
L 276.115206 128.283256 
L 276.841765 129.016927 
L 277.568323 129.409086 
L 278.294881 129.534782 
L 279.02144 129.376923 
L 279.747998 129.005081 
L 281.927673 129.758579 
L 282.654232 129.663578 
L 283.38079 129.106649 
L 284.107348 128.934868 
L 284.833907 128.106568 
L 285.560465 127.933452 
L 287.013582 128.234531 
L 288.466699 128.222657 
L 289.193257 128.713769 
L 289.919815 129.065273 
L 291.372932 128.110076 
L 292.826049 129.227224 
L 293.552607 129.13381 
L 294.279166 128.486404 
L 296.458841 128.748005 
L 297.185399 128.028915 
L 299.365074 126.599588 
L 300.091633 127.271614 
L 300.818191 126.994678 
L 301.544749 127.017711 
L 303.724425 126.110214 
L 304.450983 126.602066 
L 305.9041 127.200152 
L 306.630658 127.74437 
L 308.083775 128.297292 
L 309.536892 126.981581 
L 310.26345 126.798833 
L 311.716567 126.974401 
L 313.169684 127.599688 
L 313.896242 127.954219 
L 314.6228 127.578974 
L 315.349359 126.675207 
L 316.075917 127.337618 
L 317.529034 126.563778 
L 318.255592 127.184922 
L 318.982151 127.48776 
L 320.435267 127.846905 
L 321.161826 127.680404 
L 321.888384 126.978028 
L 323.341501 126.962703 
L 324.068059 126.552647 
L 326.247734 125.841308 
L 326.974293 125.307338 
L 327.700851 125.071294 
L 328.427409 125.776501 
L 329.153968 125.764053 
L 329.880526 126.572019 
L 330.607085 126.981675 
L 331.333643 126.805266 
L 332.060201 126.98007 
L 332.78676 127.322361 
L 333.513318 127.011722 
L 334.966435 126.633955 
L 335.692993 126.28775 
L 336.419552 126.100803 
L 337.14611 125.632973 
L 337.872668 125.869094 
L 339.325785 125.470785 
L 340.052343 124.97984 
L 340.778902 125.174014 
L 341.50546 125.251399 
L 342.232019 124.956408 
L 342.958577 125.599773 
L 343.685135 125.293214 
L 344.411694 126.089696 
L 345.138252 126.229522 
L 345.86481 126.025543 
L 346.591369 126.125291 
L 347.317927 126.038838 
L 348.044486 126.522398 
L 348.771044 126.839221 
L 349.497602 127.517214 
L 350.224161 127.143928 
L 350.950719 127.157727 
L 351.677277 127.048634 
L 352.403836 126.585398 
L 353.130394 126.759975 
L 353.856953 126.52205 
L 354.583511 126.859004 
L 356.036628 127.110942 
L 356.763186 127.416613 
L 357.489744 127.46767 
L 358.216303 126.772058 
L 358.942861 127.326775 
L 359.66942 127.277996 
L 360.395978 126.866428 
L 361.122536 127.183584 
L 361.849095 127.822573 
L 362.575653 127.949826 
L 364.755328 127.400264 
L 365.481887 127.369654 
L 366.935003 128.172492 
L 368.38812 128.727569 
L 369.114679 128.693303 
L 369.841237 129.276134 
L 370.567795 129.65693 
L 372.74747 128.092781 
L 374.200587 128.948263 
L 374.927146 128.682824 
L 375.653704 128.55521 
L 376.380262 128.632193 
L 377.106821 129.312434 
L 377.833379 128.758075 
L 378.559937 128.777889 
L 379.286496 128.671015 
L 380.013054 128.412782 
L 380.739613 128.351763 
L 381.466171 128.473386 
L 382.192729 128.444444 
L 382.919288 128.255248 
L 383.645846 127.802629 
L 384.372404 127.796618 
L 385.825521 128.006968 
L 387.278638 128.005052 
L 388.005196 128.132436 
L 388.731755 128.619141 
L 389.458313 128.715238 
L 390.184871 128.506572 
L 390.91143 128.538508 
L 391.637988 128.136727 
L 392.364547 127.575632 
L 393.091105 127.790732 
L 394.544222 127.687784 
L 395.27078 127.992846 
L 396.723897 127.985959 
L 397.450455 128.116806 
L 398.177014 128.128292 
L 398.903572 127.860785 
L 399.63013 128.361662 
L 400.356689 127.762954 
L 401.083247 127.557544 
L 402.536364 127.747465 
L 403.262922 128.218504 
L 405.442597 126.405543 
L 406.169156 126.526298 
L 406.895714 126.04985 
L 409.075389 125.938153 
L 409.801948 125.791315 
L 410.528506 125.865075 
L 411.255064 126.221265 
L 411.981623 125.966321 
L 412.708181 125.935701 
L 413.434739 126.031621 
L 414.161298 126.273263 
L 414.887856 126.686949 
L 416.340973 127.12795 
L 417.79409 127.468665 
L 418.520648 128.021885 
L 419.247206 127.691389 
L 420.700323 127.412425 
L 421.426882 127.299003 
L 422.15344 127.462637 
L 422.879998 127.84712 
L 423.606557 127.63248 
L 424.333115 127.842925 
L 425.059674 127.787316 
L 425.786232 127.927448 
L 427.239349 127.971973 
L 427.965907 128.164015 
L 428.692465 128.155306 
L 429.419024 127.985017 
L 430.145582 128.045721 
L 430.872141 128.599594 
L 433.051816 128.551612 
L 433.778374 128.755181 
L 434.504932 128.602078 
L 435.231491 128.028561 
L 435.958049 127.956271 
L 436.684608 127.758609 
L 437.411166 127.850984 
L 438.137724 128.157338 
L 438.864283 127.611446 
L 440.317399 127.448521 
L 441.043958 126.994126 
L 441.770516 126.901513 
L 442.497075 126.335968 
L 443.223633 126.463712 
L 443.950191 126.392949 
L 444.67675 126.816612 
L 445.403308 126.714858 
L 446.129866 127.078933 
L 446.856425 126.736381 
L 447.582983 127.121135 
L 448.309542 127.096722 
L 449.0361 126.811131 
L 449.762658 127.141728 
L 451.215775 126.988027 
L 451.942333 127.298983 
L 452.668892 126.984938 
L 453.39545 127.197046 
L 454.122009 126.997678 
L 454.848567 127.414392 
L 455.575125 127.38147 
L 456.301684 127.548628 
L 457.7548 127.176592 
L 458.481359 126.835846 
L 459.934476 127.140456 
L 461.387592 127.454546 
L 462.114151 127.168176 
L 463.567267 127.638234 
L 464.293826 127.391245 
L 465.020384 127.279799 
L 465.746943 127.304468 
L 466.473501 127.463972 
L 467.200059 127.372175 
L 467.926618 127.682088 
L 468.653176 127.531749 
L 469.379734 127.751403 
L 470.832851 127.799347 
L 471.55941 128.143306 
L 473.739085 127.904418 
L 474.465643 127.577108 
L 475.192201 127.682834 
L 475.91876 128.062804 
L 476.645318 127.665074 
L 477.371877 127.738361 
L 478.098435 128.008098 
L 478.824993 127.824295 
L 481.004669 128.134544 
L 483.184344 127.587874 
L 483.910902 127.745594 
L 484.63746 128.235401 
L 485.364019 128.294271 
L 486.090577 128.746177 
L 488.996811 128.101182 
L 489.723369 128.164944 
L 490.449927 128.662606 
L 491.903044 128.977316 
L 492.629603 128.488206 
L 493.356161 128.448156 
L 494.082719 128.026653 
L 494.809278 128.139063 
L 495.535836 127.843519 
L 496.262394 127.688686 
L 497.715511 128.048481 
L 498.44207 128.355295 
L 499.168628 128.138531 
L 499.895186 128.458093 
L 500.621745 128.176137 
L 501.348303 128.440929 
L 502.074861 128.487974 
L 502.80142 128.10185 
L 503.527978 128.372528 
L 504.254537 128.266651 
L 504.981095 128.530452 
L 506.434212 128.379247 
L 507.16077 128.848301 
L 508.613887 128.378054 
L 509.340445 127.911077 
L 510.067004 127.980477 
L 510.793562 127.819162 
L 514.426354 128.455017 
L 515.152912 127.99705 
L 515.879471 128.138065 
L 516.606029 128.147592 
L 517.332587 128.591725 
L 518.059146 128.433516 
L 518.785704 128.138149 
L 519.512262 128.463501 
L 522.418496 128.766034 
L 523.145054 128.924694 
L 523.871613 128.763708 
L 524.598171 128.988526 
L 526.051288 128.968151 
L 526.777846 129.136572 
L 527.504405 129.525001 
L 528.230963 129.64431 
L 528.957521 129.623083 
L 529.68408 129.740182 
L 530.410638 129.717244 
L 531.137196 129.874088 
L 531.863755 129.602593 
L 532.590313 129.559672 
L 534.04343 129.707209 
L 534.769988 129.394685 
L 535.496547 129.641818 
L 536.223105 129.692517 
L 536.949663 129.496856 
L 539.855897 129.723612 
L 540.582455 129.658997 
L 542.762131 129.879722 
L 543.488689 129.633093 
L 544.215247 129.964452 
L 544.941806 130.053955 
L 545.668364 129.968154 
L 546.394922 130.019403 
L 547.121481 129.786236 
L 547.848039 129.856476 
L 550.027714 129.517417 
L 551.480831 128.901833 
L 552.207389 128.924065 
L 552.933948 128.762093 
L 553.660506 128.826223 
L 554.387065 129.049918 
L 555.113623 128.929249 
L 555.840181 129.034788 
L 556.56674 128.763798 
L 557.293298 128.873522 
L 558.019856 128.647712 
L 558.746415 128.863841 
L 560.199532 128.668056 
L 562.379207 128.259804 
L 563.105765 127.942536 
L 563.832323 127.801781 
L 564.558882 127.829791 
L 565.28544 128.082452 
L 566.011999 127.992637 
L 567.465115 128.021644 
L 568.191674 127.885521 
L 568.918232 127.906588 
L 569.64479 127.764574 
L 570.371349 127.395234 
L 571.824466 127.309462 
L 572.551024 127.630679 
L 573.277582 127.806739 
L 574.004141 127.823078 
L 574.730699 127.666441 
L 575.457257 127.738473 
L 576.910374 127.719286 
L 577.636933 127.958708 
L 579.816608 127.081232 
L 580.543166 127.281216 
L 581.269724 127.284782 
L 582.722841 127.055152 
L 583.4494 127.243256 
L 584.175958 127.208246 
L 584.902516 127.017031 
L 585.629075 126.989239 
L 586.355633 127.121215 
L 588.535308 127.113566 
L 589.261867 126.718229 
L 590.714983 127.160262 
L 591.441542 127.006182 
L 592.894658 127.263611 
L 593.621217 127.453607 
L 595.074334 127.482974 
L 595.800892 127.791547 
L 597.254009 127.712738 
L 597.980567 127.738784 
L 599.433684 127.472596 
L 600.160242 127.707264 
L 600.886801 127.333081 
L 602.339917 127.577465 
L 603.793034 127.471047 
L 604.519593 127.215136 
L 606.699268 127.20447 
L 608.152384 126.794088 
L 608.878943 127.011011 
L 610.33206 126.625843 
L 611.785176 126.703649 
L 612.511735 126.779037 
L 613.238293 126.718275 
L 613.964851 126.890975 
L 614.69141 126.808826 
L 615.417968 126.56621 
L 616.871085 126.453086 
L 617.597643 126.41963 
L 619.05076 126.521875 
L 619.777318 126.549273 
L 620.503877 126.419124 
L 622.683552 126.637655 
L 623.41011 126.731239 
L 624.136669 126.556251 
L 624.863227 126.758005 
L 625.589785 126.388101 
L 626.316344 126.363768 
L 627.042902 126.091326 
L 628.496019 126.613558 
L 629.222577 126.537962 
L 629.949136 126.610121 
L 631.402252 126.155102 
L 634.308486 125.178399 
L 635.035044 125.14558 
L 635.761603 125.37519 
L 636.488161 125.291465 
L 637.941278 124.750309 
L 640.120953 125.202805 
L 640.847511 125.373408 
L 641.57407 125.202883 
L 642.300628 125.50328 
L 645.206862 124.832158 
L 645.93342 124.77624 
L 648.839653 125.231954 
L 650.29277 125.518684 
L 651.745887 125.480138 
L 652.472445 125.82131 
L 653.925562 125.8744 
L 654.652121 125.660445 
L 655.378679 125.655911 
L 656.105237 125.824811 
L 657.558354 125.514895 
L 658.284912 125.625998 
L 659.011471 125.304461 
L 659.738029 125.277364 
L 660.464588 125.583576 
L 663.370821 125.420143 
L 664.097379 125.237781 
L 664.823938 125.33829 
L 665.550496 125.130204 
L 666.277055 125.265749 
L 667.003613 124.932386 
L 667.730171 125.135801 
L 668.45673 124.874431 
L 669.183288 124.783825 
L 669.909846 124.504686 
L 671.362963 124.652966 
L 672.089522 124.408872 
L 672.81608 124.544721 
L 675.722313 124.275974 
L 676.448872 124.338648 
L 679.355105 124.156584 
L 680.808222 123.98664 
L 681.53478 123.677247 
L 682.261339 123.896231 
L 682.987897 123.750492 
L 684.441014 123.195501 
L 685.894131 123.082515 
L 688.073806 123.307144 
L 688.800364 123.471568 
L 689.526923 123.502388 
L 690.253481 123.698551 
L 690.980039 123.770801 
L 691.706598 123.985946 
L 694.612831 124.042827 
L 695.33939 124.017161 
L 696.065948 124.289963 
L 696.792506 124.409661 
L 697.519065 124.080909 
L 698.245623 123.89016 
L 698.972181 124.094937 
L 699.69874 123.896325 
L 700.425298 123.977248 
L 702.604973 123.682014 
L 703.331532 123.712415 
L 704.05809 123.631472 
L 704.784648 123.897341 
L 706.237765 123.998581 
L 707.690882 124.048781 
L 708.41744 124.293171 
L 710.597115 123.853262 
L 711.323674 124.169324 
L 712.050232 124.215357 
L 712.776791 124.04891 
L 713.503349 124.066513 
L 715.683024 124.580451 
L 716.409583 124.259783 
L 717.136141 124.438156 
L 717.862699 124.274728 
L 718.589258 124.437964 
L 719.315816 124.387029 
L 720.042374 124.568136 
L 720.768933 124.602743 
L 721.495491 124.755362 
L 722.22205 124.601877 
L 722.948608 124.7741 
L 723.675166 124.792583 
L 725.854841 124.376427 
L 726.5814 124.352153 
L 728.034517 124.545108 
L 729.487633 124.120455 
L 730.94075 124.214183 
L 731.667308 123.965836 
L 732.393867 124.134167 
L 733.120425 123.88503 
L 733.846984 124.007855 
L 735.3001 123.974677 
L 736.026659 123.965123 
L 736.753217 123.739515 
L 737.479775 123.820174 
L 738.206334 123.783961 
L 738.932892 123.527008 
L 739.659451 123.71172 
L 740.386009 123.650116 
L 741.112567 123.472727 
L 743.292242 123.430514 
L 744.018801 123.26963 
L 744.745359 123.358639 
L 745.471918 123.674439 
L 746.198476 123.647716 
L 746.925034 123.354801 
L 749.104709 123.369807 
L 749.831268 123.615296 
L 752.010943 123.840272 
L 753.46406 123.639291 
L 754.190618 123.589274 
L 754.917176 123.772354 
L 755.643735 123.682639 
L 756.370293 123.973024 
L 758.549968 123.656961 
L 759.276527 123.683008 
L 760.003085 123.480802 
L 760.729643 123.751554 
L 762.18276 123.481096 
L 762.909319 123.383413 
L 763.635877 123.158221 
L 765.088994 123.495569 
L 767.268669 123.611893 
L 768.721786 123.132506 
L 769.448344 123.202296 
L 772.354578 122.445801 
L 773.807694 122.669454 
L 778.167045 122.662624 
L 780.34672 122.961456 
L 781.073278 122.884251 
L 781.799836 122.976332 
L 782.526395 122.835758 
L 783.252953 122.987178 
L 785.432628 122.916967 
L 787.612303 122.559476 
L 788.338862 122.634176 
L 789.06542 122.863789 
L 789.791979 122.691033 
L 790.518537 122.908773 
L 791.245095 122.906002 
L 794.151329 123.362793 
L 794.877887 123.237938 
L 797.057562 123.365189 
L 797.784121 123.508095 
L 798.510679 123.386462 
L 799.237237 123.570573 
L 799.963796 123.467746 
L 800.690354 123.215669 
L 802.143471 123.572878 
L 803.596588 123.229961 
L 804.323146 123.290116 
L 806.502821 123.003576 
L 807.955938 122.66549 
L 809.409055 122.767902 
L 810.862171 123.089226 
L 812.315288 123.058776 
L 813.041847 123.139892 
L 813.041847 123.139892 
" clip-path="url(#p2a0f760b70)" style="fill: none; stroke: #4ecdc4; stroke-opacity: 0.8; stroke-width: 2; stroke-linecap: square"/>
   </g>
   <g id="line2d_26">
    <path d="M 87.210028 275.433515 
L 87.936587 353.59408 
L 88.663145 391.32192 
L 89.389704 377.973516 
L 90.84282 407.678856 
L 91.569379 404.710833 
L 92.295937 383.174218 
L 93.022495 390.163704 
L 93.749054 392.009365 
L 94.475612 376.367059 
L 95.202171 394.176473 
L 95.928729 398.123957 
L 96.655287 401.278977 
L 97.381846 406.332202 
L 98.108404 401.321196 
L 98.834962 402.611929 
L 99.561521 394.510982 
L 101.014638 400.776345 
L 101.741196 399.786562 
L 102.467754 400.532958 
L 103.194313 398.389473 
L 103.920871 405.901505 
L 104.647429 409.44436 
L 105.373988 409.297708 
L 106.100546 415.743798 
L 106.827105 410.868696 
L 107.553663 410.919403 
L 108.280221 406.627317 
L 109.00678 406.635358 
L 109.733338 407.148456 
L 110.459896 408.276316 
L 111.186455 405.999035 
L 111.913013 408.317297 
L 112.639572 410.146398 
L 113.36613 406.265018 
L 114.092688 409.319995 
L 115.545805 405.533099 
L 116.272363 402.004712 
L 116.998922 403.720065 
L 118.452039 410.276558 
L 119.178597 411.943534 
L 119.905155 411.247442 
L 121.358272 414.411457 
L 122.08483 415.246537 
L 122.811389 417.111937 
L 123.537947 417.045739 
L 124.264506 419.727925 
L 124.991064 419.626866 
L 125.717622 418.775349 
L 126.444181 422.178668 
L 127.170739 424.479495 
L 127.897297 426.407989 
L 128.623856 427.988309 
L 129.350414 428.993891 
L 130.076973 428.972552 
L 131.530089 426.89666 
L 132.256648 430.503711 
L 132.983206 431.610141 
L 134.436323 436.812358 
L 135.162881 436.71523 
L 135.88944 435.100849 
L 136.615998 433.194562 
L 137.342556 433.136211 
L 138.069115 433.20641 
L 138.795673 433.946987 
L 139.522232 436.702635 
L 140.24879 436.649585 
L 140.975348 436.109393 
L 142.428465 430.497009 
L 143.155023 430.181453 
L 143.881582 428.526698 
L 144.60814 427.474422 
L 145.334699 428.073094 
L 146.061257 425.628164 
L 147.514374 419.238983 
L 148.240932 420.485142 
L 148.96749 419.791408 
L 149.694049 418.72855 
L 150.420607 418.327896 
L 151.147166 419.053244 
L 151.873724 418.161301 
L 152.600282 418.378633 
L 153.326841 418.390219 
L 154.053399 420.286994 
L 155.506516 417.224055 
L 156.233074 417.699049 
L 156.959633 416.086451 
L 157.686191 415.610031 
L 158.412749 415.843389 
L 159.139308 415.853927 
L 159.865866 415.148374 
L 160.592424 415.43578 
L 161.318983 414.020683 
L 162.045541 413.300315 
L 162.7721 414.399632 
L 163.498658 413.611449 
L 164.951775 416.578533 
L 165.678333 416.117381 
L 166.404891 415.21615 
L 167.13145 415.746487 
L 167.858008 414.907157 
L 168.584567 414.24999 
L 169.311125 414.263736 
L 170.037683 412.599088 
L 170.764242 413.914401 
L 171.4908 414.042345 
L 172.217358 413.273653 
L 172.943917 412.816344 
L 173.670475 411.555659 
L 175.123592 410.806785 
L 175.85015 411.153258 
L 176.576709 411.174609 
L 177.303267 411.887493 
L 178.029825 413.088243 
L 178.756384 412.413444 
L 179.482942 412.705038 
L 180.936059 412.292094 
L 181.662617 413.174605 
L 182.389176 412.732661 
L 183.115734 412.895453 
L 183.842292 413.586036 
L 184.568851 412.721072 
L 185.295409 413.208323 
L 186.021968 412.403646 
L 188.201643 416.74041 
L 188.928201 417.04074 
L 189.65476 417.202733 
L 190.381318 416.977191 
L 191.107876 417.305547 
L 191.834435 416.202863 
L 192.560993 416.420375 
L 193.287551 416.229661 
L 194.01411 415.544098 
L 194.740668 416.395073 
L 195.467227 417.448725 
L 196.193785 416.522033 
L 196.920343 415.197063 
L 197.646902 414.806262 
L 198.37346 415.017595 
L 199.100018 414.467295 
L 200.553135 415.619235 
L 201.279694 415.160788 
L 202.006252 415.868154 
L 202.73281 415.308968 
L 203.459369 415.313017 
L 204.185927 414.612688 
L 204.912485 414.432425 
L 205.639044 415.72174 
L 206.365602 416.005482 
L 207.092161 415.205338 
L 207.818719 413.793355 
L 208.545277 413.479714 
L 209.271836 413.386437 
L 209.998394 414.463157 
L 210.724952 413.781645 
L 211.451511 413.505346 
L 212.904628 413.889892 
L 214.357744 414.998433 
L 215.084303 413.900876 
L 215.810861 413.742282 
L 216.537419 414.77613 
L 217.263978 414.037037 
L 217.990536 414.200894 
L 218.717095 413.175708 
L 220.170211 412.883253 
L 220.89677 413.368683 
L 222.349886 412.687568 
L 223.076445 413.13223 
L 223.803003 413.303158 
L 224.529562 413.261191 
L 225.25612 413.741219 
L 225.982678 413.350099 
L 226.709237 412.246771 
L 227.435795 412.209264 
L 228.888912 413.730703 
L 229.61547 412.959781 
L 230.342029 413.237472 
L 231.068587 413.00048 
L 232.521704 411.745902 
L 233.248262 412.150967 
L 233.97482 412.106625 
L 234.701379 412.402018 
L 235.427937 411.478097 
L 236.154496 411.442518 
L 236.881054 411.294913 
L 237.607612 411.48806 
L 238.334171 411.154917 
L 239.060729 411.25221 
L 239.787287 411.56865 
L 240.513846 411.257031 
L 241.966963 412.049363 
L 242.693521 411.385669 
L 244.146638 412.341127 
L 244.873196 411.626084 
L 245.599754 412.346546 
L 246.326313 412.759064 
L 247.052871 412.743196 
L 247.77943 412.471957 
L 248.505988 411.712245 
L 249.232546 411.590467 
L 249.959105 411.587471 
L 250.685663 410.986453 
L 251.412222 411.429689 
L 252.865338 411.641471 
L 253.591897 411.103771 
L 254.318455 411.651952 
L 255.045013 411.195146 
L 255.771572 410.907094 
L 256.49813 411.169195 
L 257.224689 412.028617 
L 257.951247 411.29482 
L 258.677805 410.801548 
L 259.404364 410.888389 
L 260.130922 411.37218 
L 260.85748 410.683221 
L 261.584039 411.075736 
L 262.310597 411.864971 
L 263.763714 412.739538 
L 264.490272 412.22726 
L 265.943389 413.294566 
L 266.669947 413.059432 
L 267.396506 412.976847 
L 268.123064 412.284902 
L 268.849623 411.757812 
L 269.576181 410.903599 
L 270.302739 410.297085 
L 271.029298 410.759054 
L 271.755856 410.818728 
L 272.482414 411.151232 
L 273.208973 411.308054 
L 273.935531 411.122043 
L 274.66209 411.39476 
L 275.388648 410.84544 
L 276.115206 410.512936 
L 276.841765 410.595311 
L 277.568323 410.092842 
L 278.294881 410.877301 
L 279.02144 411.108569 
L 279.747998 410.834048 
L 280.474557 411.348742 
L 282.654232 411.864844 
L 283.38079 412.184975 
L 284.107348 412.756496 
L 284.833907 412.89721 
L 285.560465 412.385314 
L 286.287024 412.438246 
L 287.74014 411.050722 
L 289.193257 410.963296 
L 292.099491 411.809434 
L 292.826049 411.836654 
L 294.279166 412.311706 
L 295.732282 411.08139 
L 296.458841 411.032638 
L 297.185399 410.866157 
L 297.911958 410.828631 
L 298.638516 411.081863 
L 299.365074 411.508653 
L 300.091633 411.579002 
L 300.818191 411.363686 
L 302.271308 412.086617 
L 303.724425 410.979393 
L 304.450983 411.267458 
L 305.177541 411.430555 
L 305.9041 410.943328 
L 306.630658 410.947378 
L 307.357217 411.429928 
L 308.083775 410.932524 
L 309.536892 410.647254 
L 310.26345 411.13284 
L 311.716567 411.81789 
L 312.443125 411.323446 
L 313.169684 411.21772 
L 313.896242 411.73236 
L 314.6228 411.455602 
L 316.075917 411.546225 
L 318.255592 411.660387 
L 318.982151 412.134001 
L 319.708709 411.894965 
L 320.435267 411.391466 
L 321.161826 411.253198 
L 321.888384 411.36818 
L 322.614942 411.360775 
L 323.341501 410.696344 
L 324.068059 410.698133 
L 324.794618 411.08734 
L 325.521176 410.936029 
L 326.247734 411.037851 
L 326.974293 411.253765 
L 327.700851 411.066108 
L 328.427409 411.197378 
L 329.153968 410.862159 
L 329.880526 410.774301 
L 330.607085 411.01407 
L 331.333643 411.452024 
L 332.060201 411.245916 
L 332.78676 411.441075 
L 333.513318 411.497177 
L 334.239876 411.080982 
L 334.966435 411.190677 
L 335.692993 411.508525 
L 336.419552 411.642265 
L 337.14611 411.591505 
L 337.872668 411.427643 
L 338.599227 410.992535 
L 340.052343 411.320297 
L 342.232019 409.806258 
L 342.958577 409.645402 
L 343.685135 409.971812 
L 344.411694 409.915335 
L 345.138252 410.530949 
L 345.86481 410.92027 
L 346.591369 410.957109 
L 348.044486 411.433868 
L 348.771044 411.068485 
L 349.497602 410.945873 
L 350.224161 410.944799 
L 350.950719 411.196679 
L 351.677277 411.636125 
L 352.403836 411.843108 
L 353.130394 411.39138 
L 354.583511 411.135161 
L 355.310069 410.659729 
L 356.036628 410.45725 
L 356.763186 410.63383 
L 357.489744 411.166424 
L 358.216303 411.208981 
L 358.942861 411.02376 
L 360.395978 410.931583 
L 361.122536 410.597334 
L 361.849095 410.479759 
L 362.575653 411.052575 
L 363.302212 410.642661 
L 364.02877 410.777989 
L 364.755328 410.621735 
L 365.481887 410.832248 
L 366.208445 410.586455 
L 366.935003 410.55648 
L 367.661562 410.717071 
L 368.38812 410.629192 
L 370.567795 411.178949 
L 372.74747 410.828156 
L 373.474029 410.848442 
L 374.200587 411.101542 
L 374.927146 410.662529 
L 375.653704 410.073515 
L 377.833379 410.150842 
L 379.286496 409.579707 
L 380.739613 408.626429 
L 381.466171 409.162487 
L 382.192729 408.657431 
L 382.919288 408.751864 
L 383.645846 408.672102 
L 384.372404 408.185607 
L 385.098963 408.722728 
L 385.825521 408.294944 
L 386.55208 408.50904 
L 388.005196 408.564217 
L 388.731755 408.640819 
L 389.458313 409.147766 
L 390.184871 408.994885 
L 390.91143 409.457796 
L 393.817663 410.218296 
L 394.544222 410.639077 
L 395.27078 410.362288 
L 396.723897 409.41515 
L 397.450455 409.259866 
L 398.177014 409.699578 
L 398.903572 409.73059 
L 399.63013 409.595539 
L 400.356689 409.630927 
L 402.536364 408.464063 
L 404.716039 408.587331 
L 405.442597 408.616942 
L 406.169156 408.898959 
L 406.895714 409.007579 
L 407.622272 409.419747 
L 408.348831 409.402521 
L 409.075389 408.879182 
L 409.801948 408.76452 
L 410.528506 409.012547 
L 411.255064 409.011 
L 411.981623 408.825534 
L 412.708181 408.787576 
L 413.434739 408.402753 
L 414.161298 408.331042 
L 417.067531 408.482455 
L 418.520648 408.338239 
L 419.247206 408.107058 
L 419.973765 408.181666 
L 420.700323 407.896793 
L 423.606557 407.579262 
L 424.333115 407.297707 
L 425.786232 407.942203 
L 426.51279 407.73502 
L 427.239349 407.339475 
L 427.965907 407.657395 
L 428.692465 407.23807 
L 430.145582 407.345468 
L 430.872141 407.301845 
L 431.598699 407.479553 
L 432.325257 407.494175 
L 433.051816 407.637733 
L 433.778374 407.960019 
L 435.231491 408.052689 
L 435.958049 407.993025 
L 437.411166 408.492675 
L 438.137724 408.286967 
L 438.864283 408.308647 
L 439.590841 408.014186 
L 440.317399 408.371913 
L 441.770516 408.181038 
L 442.497075 408.187403 
L 443.223633 408.061127 
L 443.950191 407.805304 
L 445.403308 407.602564 
L 446.129866 407.636997 
L 446.856425 407.784789 
L 448.309542 407.421091 
L 449.0361 407.603945 
L 449.762658 407.427814 
L 451.215775 406.54599 
L 452.668892 406.524462 
L 454.122009 407.076712 
L 454.848567 406.966329 
L 455.575125 406.561647 
L 457.028242 407.108902 
L 459.207917 406.655686 
L 459.934476 406.901206 
L 460.661034 406.619537 
L 461.387592 406.721162 
L 462.114151 406.705952 
L 463.567267 406.997476 
L 465.020384 406.559873 
L 466.473501 406.844619 
L 467.200059 406.413402 
L 467.926618 406.609756 
L 469.379734 406.81787 
L 470.106293 407.153909 
L 472.285968 407.33834 
L 473.012526 407.678279 
L 473.739085 407.577706 
L 475.91876 408.007175 
L 476.645318 407.911607 
L 477.371877 408.303984 
L 478.098435 408.116163 
L 478.824993 407.807673 
L 479.551552 408.19984 
L 481.004669 407.631238 
L 481.731227 407.870486 
L 482.457785 407.629881 
L 483.184344 407.589643 
L 483.910902 407.683544 
L 484.63746 407.650014 
L 485.364019 408.025425 
L 486.090577 407.968494 
L 486.817136 408.178306 
L 488.270252 407.805494 
L 488.996811 407.50512 
L 489.723369 407.708959 
L 490.449927 407.687157 
L 491.176486 407.8049 
L 491.903044 408.047067 
L 494.082719 408.069473 
L 494.809278 407.794801 
L 495.535836 407.758994 
L 496.262394 407.478259 
L 496.988953 407.394317 
L 497.715511 407.529006 
L 498.44207 407.388313 
L 500.621745 407.410547 
L 502.80142 407.0051 
L 504.254537 407.262404 
L 504.981095 407.264431 
L 505.707653 407.05768 
L 506.434212 407.312071 
L 507.887328 407.292831 
L 508.613887 407.124158 
L 509.340445 407.132612 
L 510.067004 407.495309 
L 511.52012 407.306915 
L 515.152912 407.444463 
L 515.879471 407.689473 
L 516.606029 407.526522 
L 518.785704 407.335172 
L 520.965379 407.031805 
L 521.691938 407.188874 
L 523.871613 406.751527 
L 524.598171 406.893884 
L 525.324729 406.738894 
L 526.051288 406.402549 
L 526.777846 406.663049 
L 527.504405 406.606276 
L 528.230963 406.680036 
L 528.957521 406.354211 
L 529.68408 406.579966 
L 530.410638 406.407138 
L 531.137196 406.658749 
L 533.316872 406.946169 
L 534.04343 406.679829 
L 538.40278 407.141299 
L 539.855897 406.799582 
L 540.582455 406.452738 
L 542.035572 406.892852 
L 542.762131 407.179908 
L 544.215247 407.224672 
L 544.941806 406.981969 
L 548.574598 406.74552 
L 551.480831 407.198941 
L 552.207389 407.501159 
L 552.933948 407.534061 
L 553.660506 407.27556 
L 555.113623 407.330064 
L 555.840181 407.53905 
L 557.293298 407.418438 
L 559.472973 407.93471 
L 560.199532 408.125912 
L 560.92609 407.882523 
L 563.105765 407.903981 
L 563.832323 407.802476 
L 564.558882 407.95714 
L 566.011999 408.047029 
L 566.738557 408.355633 
L 568.191674 408.670556 
L 568.918232 408.386536 
L 569.64479 408.283598 
L 570.371349 408.318189 
L 571.824466 407.955766 
L 573.277582 407.980418 
L 574.004141 407.698654 
L 574.730699 407.870495 
L 576.183816 407.587946 
L 576.910374 407.315808 
L 578.363491 407.109454 
L 580.543166 406.848626 
L 581.996283 407.168591 
L 582.722841 407.373477 
L 584.175958 407.318709 
L 584.902516 407.462334 
L 586.355633 407.098689 
L 587.80875 407.660118 
L 589.261867 407.767242 
L 589.988425 407.62066 
L 590.714983 407.764607 
L 594.347775 407.820956 
L 595.074334 407.652989 
L 595.800892 407.712635 
L 597.254009 408.187286 
L 597.980567 408.060158 
L 598.707126 408.068965 
L 599.433684 407.867687 
L 601.613359 407.844457 
L 603.793034 407.682601 
L 605.246151 407.769635 
L 605.972709 407.605388 
L 607.425826 407.839366 
L 608.152384 407.853494 
L 608.878943 407.721352 
L 609.605501 407.854768 
L 610.33206 407.715952 
L 611.058618 407.70796 
L 611.785176 407.484827 
L 612.511735 407.658255 
L 613.238293 407.345878 
L 613.964851 407.188811 
L 615.417968 407.483801 
L 616.144527 407.206055 
L 618.324202 407.031604 
L 619.05076 407.151621 
L 620.503877 406.808262 
L 621.230435 407.002064 
L 622.683552 407.059006 
L 623.41011 407.242159 
L 624.136669 407.118854 
L 625.589785 407.120982 
L 626.316344 406.839995 
L 627.042902 406.780888 
L 628.496019 406.85441 
L 629.222577 406.797156 
L 629.949136 407.09233 
L 632.855369 407.281802 
L 635.035044 406.961267 
L 635.761603 407.103786 
L 636.488161 407.03989 
L 643.027186 407.857505 
L 644.480303 408.044344 
L 646.659978 408.272091 
L 647.386537 408.164969 
L 649.566212 408.463093 
L 651.745887 407.852308 
L 652.472445 407.819826 
L 653.925562 408.207241 
L 654.652121 408.180575 
L 655.378679 408.415128 
L 659.011471 408.874024 
L 664.823938 408.688396 
L 668.45673 409.062074 
L 669.183288 408.869549 
L 669.909846 408.796995 
L 670.636405 408.583478 
L 672.089522 408.579363 
L 672.81608 408.536609 
L 674.269197 408.878709 
L 675.722313 408.920054 
L 676.448872 409.191201 
L 677.17543 409.012621 
L 677.901989 409.167718 
L 679.355105 409.265756 
L 680.081664 409.472574 
L 680.808222 409.371067 
L 681.53478 409.39692 
L 682.261339 409.287482 
L 683.714456 409.455287 
L 684.441014 409.512124 
L 685.894131 409.893074 
L 686.620689 409.909251 
L 688.073806 409.52053 
L 688.800364 409.496006 
L 689.526923 409.741871 
L 690.253481 409.857281 
L 690.980039 409.772795 
L 691.706598 409.900882 
L 692.433156 409.677535 
L 693.159714 409.740218 
L 693.886273 409.528468 
L 694.612831 409.65181 
L 695.33939 409.505144 
L 696.065948 409.554399 
L 696.792506 409.738114 
L 698.245623 409.842713 
L 698.972181 409.96418 
L 699.69874 409.938849 
L 701.151857 409.647184 
L 701.878415 409.781723 
L 703.331532 409.290615 
L 704.05809 409.457821 
L 704.784648 409.503809 
L 705.511207 409.306576 
L 706.237765 409.315264 
L 707.690882 409.670591 
L 709.870557 409.522059 
L 710.597115 409.609631 
L 711.323674 409.575265 
L 712.050232 409.365131 
L 712.776791 409.358806 
L 713.503349 409.130959 
L 714.229907 409.117189 
L 714.956466 409.281528 
L 716.409583 409.212992 
L 717.862699 409.313654 
L 718.589258 409.409448 
L 719.315816 409.252193 
L 720.042374 409.35992 
L 720.768933 409.596585 
L 721.495491 409.460761 
L 724.401725 409.554909 
L 726.5814 409.790169 
L 727.307958 409.857409 
L 729.487633 409.703831 
L 730.214192 409.916961 
L 732.393867 409.999739 
L 733.120425 409.935937 
L 733.846984 410.115345 
L 735.3001 409.958754 
L 736.026659 409.719613 
L 737.479775 409.822076 
L 738.206334 409.566316 
L 739.659451 409.605847 
L 740.386009 409.444219 
L 744.018801 410.013387 
L 744.745359 409.840193 
L 745.471918 409.8163 
L 746.198476 410.005138 
L 747.651593 410.136626 
L 749.104709 410.21079 
L 751.284385 409.97715 
L 753.46406 410.42108 
L 754.190618 410.376027 
L 754.917176 410.483325 
L 755.643735 410.304552 
L 757.82341 410.249314 
L 759.276527 409.816251 
L 760.003085 409.886092 
L 760.729643 409.838072 
L 762.18276 410.064344 
L 762.909319 409.882018 
L 765.088994 409.708043 
L 765.815552 409.804342 
L 766.54211 410.016411 
L 771.628019 410.275295 
L 772.354578 410.277937 
L 773.807694 410.081865 
L 775.260811 410.463396 
L 775.987369 410.280066 
L 776.713928 410.518905 
L 778.893603 410.070084 
L 779.620161 409.993785 
L 780.34672 410.058154 
L 781.073278 409.891657 
L 782.526395 409.94013 
L 784.70607 409.558661 
L 785.432628 409.635841 
L 786.159187 409.548992 
L 787.612303 409.676721 
L 789.06542 409.852146 
L 789.791979 409.933171 
L 791.971654 409.818236 
L 792.698212 409.755612 
L 795.604446 410.014444 
L 796.331004 409.790574 
L 797.057562 409.951257 
L 798.510679 409.740303 
L 799.237237 409.748795 
L 799.963796 409.569894 
L 800.690354 409.595581 
L 801.416913 409.469712 
L 804.323146 409.589728 
L 806.502821 409.170114 
L 807.22938 409.112908 
L 807.955938 409.226866 
L 812.315288 408.727257 
L 813.041847 408.770429 
L 813.041847 408.770429 
" clip-path="url(#p2a0f760b70)" style="fill: none; stroke: #45b7d1; stroke-opacity: 0.8; stroke-width: 2; stroke-linecap: square"/>
   </g>
   <g id="line2d_27">
    <path d="M 87.210028 275.433515 
L 87.936587 204.196895 
L 88.663145 167.37756 
L 89.389704 214.19943 
L 90.116262 252.967779 
L 90.84282 244.627667 
L 91.569379 268.092836 
L 92.295937 276.672605 
L 93.022495 272.054417 
L 93.749054 258.872828 
L 94.475612 261.403907 
L 95.202171 260.494949 
L 95.928729 254.738326 
L 96.655287 254.637952 
L 97.381846 261.038704 
L 98.108404 255.769589 
L 98.834962 261.550843 
L 99.561521 266.04825 
L 101.014638 273.759466 
L 101.741196 271.554874 
L 102.467754 272.474851 
L 103.194313 269.012307 
L 103.920871 266.680743 
L 104.647429 265.717829 
L 105.373988 268.407578 
L 106.100546 265.820872 
L 106.827105 268.144211 
L 107.553663 266.205988 
L 108.280221 270.488441 
L 109.00678 270.498492 
L 109.733338 266.752491 
L 111.186455 269.703088 
L 111.913013 272.600916 
L 112.639572 268.644565 
L 113.36613 270.035568 
L 114.819247 265.99523 
L 115.545805 267.301837 
L 116.272363 269.923902 
L 116.998922 266.854376 
L 117.72548 266.037364 
L 118.452039 263.363747 
L 119.178597 265.483482 
L 119.905155 265.14728 
L 121.358272 260.166813 
L 122.08483 262.991911 
L 122.811389 262.824793 
L 123.537947 264.435145 
L 124.991064 259.588514 
L 125.717622 259.601981 
L 126.444181 258.569136 
L 127.170739 256.151628 
L 127.897297 255.052943 
L 128.623856 257.149285 
L 129.350414 258.48322 
L 130.076973 258.349395 
L 130.803531 258.516628 
L 131.530089 257.127809 
L 132.256648 256.944008 
L 132.983206 255.151495 
L 133.709765 255.281294 
L 134.436323 254.138736 
L 135.162881 255.698855 
L 135.88944 253.774751 
L 136.615998 253.024733 
L 138.069115 253.231556 
L 138.795673 252.914446 
L 139.522232 252.347236 
L 140.24879 251.080222 
L 140.975348 253.341403 
L 141.701907 254.124132 
L 142.428465 255.610171 
L 143.155023 255.218307 
L 143.881582 256.851329 
L 144.60814 257.928538 
L 145.334699 256.194184 
L 146.061257 256.568625 
L 146.787815 256.79731 
L 147.514374 257.189867 
L 148.240932 258.81565 
L 148.96749 257.613509 
L 149.694049 258.309635 
L 150.420607 259.820419 
L 151.147166 258.410353 
L 151.873724 259.248053 
L 152.600282 259.187138 
L 153.326841 258.871476 
L 154.053399 258.157131 
L 155.506516 255.510829 
L 156.959633 258.530298 
L 157.686191 258.784849 
L 158.412749 259.94784 
L 159.139308 260.813318 
L 159.865866 260.357679 
L 160.592424 260.351111 
L 161.318983 260.94339 
L 162.045541 262.363898 
L 163.498658 261.165837 
L 164.225216 261.09682 
L 164.951775 260.431736 
L 165.678333 260.605751 
L 166.404891 261.711133 
L 167.13145 261.293699 
L 167.858008 261.685539 
L 168.584567 262.287869 
L 169.311125 261.928555 
L 170.037683 262.582614 
L 170.764242 262.502392 
L 171.4908 261.610588 
L 172.217358 260.945393 
L 172.943917 261.030201 
L 173.670475 261.398536 
L 174.397034 261.517772 
L 175.123592 262.377317 
L 175.85015 263.452865 
L 176.576709 263.480055 
L 177.303267 264.387917 
L 178.029825 264.253573 
L 178.756384 264.649692 
L 180.936059 262.722423 
L 181.662617 262.269862 
L 182.389176 262.31541 
L 183.115734 262.523678 
L 183.842292 263.407177 
L 184.568851 263.50878 
L 185.295409 263.175595 
L 186.021968 263.33431 
L 187.475084 262.959506 
L 188.201643 262.533707 
L 188.928201 262.920694 
L 189.65476 263.736015 
L 190.381318 264.047736 
L 191.107876 263.58213 
L 191.834435 263.939336 
L 192.560993 263.339522 
L 193.287551 263.385901 
L 194.01411 264.211224 
L 194.740668 263.88153 
L 195.467227 263.827841 
L 196.193785 262.92857 
L 197.646902 264.010005 
L 198.37346 263.985137 
L 199.100018 263.516054 
L 200.553135 264.991976 
L 201.279694 264.634053 
L 202.006252 265.540063 
L 202.73281 265.847553 
L 204.185927 266.965873 
L 205.639044 266.785545 
L 206.365602 266.367081 
L 207.092161 266.807664 
L 207.818719 266.918421 
L 208.545277 266.210711 
L 209.271836 266.559487 
L 209.998394 266.226298 
L 210.724952 265.533046 
L 211.451511 265.64404 
L 212.178069 265.900963 
L 214.357744 264.403436 
L 215.084303 264.837898 
L 215.810861 264.812976 
L 216.537419 264.51763 
L 217.263978 264.918954 
L 217.990536 264.862725 
L 218.717095 265.302409 
L 219.443653 265.592442 
L 220.170211 265.510173 
L 220.89677 266.128501 
L 221.623328 266.517027 
L 222.349886 265.825226 
L 223.076445 265.700288 
L 223.803003 266.333222 
L 224.529562 266.692658 
L 225.982678 268.030395 
L 226.709237 268.233557 
L 227.435795 267.498556 
L 228.888912 267.285984 
L 229.61547 267.494095 
L 230.342029 266.788738 
L 231.068587 266.881081 
L 233.248262 265.013664 
L 233.97482 265.342425 
L 234.701379 265.079142 
L 235.427937 265.423984 
L 236.154496 265.11906 
L 237.607612 265.038225 
L 238.334171 265.347384 
L 239.060729 264.853114 
L 239.787287 265.255356 
L 240.513846 264.971718 
L 241.966963 264.773882 
L 242.693521 265.35359 
L 243.420079 264.937002 
L 244.146638 264.321963 
L 244.873196 264.474247 
L 246.326313 264.404775 
L 247.052871 263.813087 
L 247.77943 263.60104 
L 249.232546 263.637725 
L 249.959105 263.07499 
L 250.685663 263.324575 
L 251.412222 262.997578 
L 252.865338 263.2676 
L 253.591897 263.587823 
L 254.318455 263.06783 
L 255.045013 263.153581 
L 256.49813 263.782926 
L 257.224689 263.670749 
L 258.677805 264.398692 
L 259.404364 263.966219 
L 260.130922 263.721567 
L 260.85748 263.80833 
L 261.584039 263.773804 
L 262.310597 263.61093 
L 263.037156 264.125631 
L 263.763714 263.882648 
L 264.490272 264.187965 
L 266.669947 262.752047 
L 268.123064 262.842622 
L 268.849623 263.106244 
L 270.302739 263.389848 
L 271.029298 262.865308 
L 271.755856 262.941311 
L 273.208973 262.869982 
L 273.935531 263.235217 
L 274.66209 262.78914 
L 275.388648 262.986519 
L 276.115206 263.450727 
L 276.841765 263.357759 
L 277.568323 263.881152 
L 278.294881 263.811894 
L 279.02144 263.332347 
L 279.747998 263.56252 
L 280.474557 263.448994 
L 281.927673 262.820924 
L 282.654232 262.402692 
L 283.38079 262.811541 
L 284.107348 262.497987 
L 285.560465 262.892365 
L 286.287024 262.499737 
L 287.013582 262.824076 
L 287.74014 262.999391 
L 288.466699 263.517714 
L 289.919815 263.062373 
L 291.372932 263.781408 
L 292.826049 263.566214 
L 293.552607 263.16354 
L 295.732282 264.048333 
L 296.458841 264.518123 
L 297.185399 264.571032 
L 298.638516 265.108632 
L 299.365074 264.678384 
L 300.091633 264.590149 
L 300.818191 264.84135 
L 301.544749 264.538844 
L 302.271308 264.099424 
L 304.450983 264.190339 
L 305.177541 263.967589 
L 305.9041 264.374006 
L 307.357217 264.139847 
L 308.083775 264.518207 
L 309.536892 264.656452 
L 310.990008 264.104261 
L 311.716567 263.883046 
L 312.443125 264.255157 
L 313.169684 263.954511 
L 313.896242 263.950134 
L 314.6228 264.092894 
L 316.075917 264.045556 
L 317.529034 264.597835 
L 318.982151 264.473764 
L 320.435267 265.216319 
L 321.161826 265.516097 
L 321.888384 265.662115 
L 322.614942 265.250108 
L 323.341501 265.348129 
L 324.068059 265.584077 
L 324.794618 265.209461 
L 327.700851 266.34584 
L 328.427409 266.34414 
L 329.153968 266.605931 
L 330.607085 266.461869 
L 331.333643 266.172373 
L 332.060201 266.589923 
L 332.78676 266.448339 
L 333.513318 266.744284 
L 334.239876 266.887127 
L 336.419552 268.041472 
L 337.14611 268.197806 
L 337.872668 267.823055 
L 338.599227 267.928442 
L 340.052343 268.560299 
L 341.50546 268.997576 
L 342.232019 268.999798 
L 342.958577 268.829581 
L 343.685135 268.43669 
L 345.138252 268.380236 
L 347.317927 267.401329 
L 348.044486 267.395291 
L 348.771044 267.772845 
L 349.497602 267.665639 
L 350.224161 267.871632 
L 351.677277 267.39315 
L 353.856953 268.091394 
L 354.583511 267.841489 
L 355.310069 268.053637 
L 356.036628 268.402228 
L 357.489744 268.176168 
L 358.216303 268.229993 
L 358.942861 268.040479 
L 359.66942 268.367924 
L 360.395978 268.522261 
L 361.122536 268.140687 
L 362.575653 268.011186 
L 363.302212 268.082619 
L 364.02877 268.449144 
L 364.755328 268.641259 
L 366.935003 267.901356 
L 367.661562 267.759869 
L 369.114679 267.225488 
L 375.653704 267.192366 
L 376.380262 266.899708 
L 377.106821 266.875709 
L 377.833379 266.998411 
L 379.286496 267.382751 
L 382.192729 267.518211 
L 382.919288 267.816065 
L 385.825521 268.150956 
L 386.55208 267.916459 
L 387.278638 268.250153 
L 388.005196 268.010457 
L 389.458313 267.922752 
L 390.184871 268.079704 
L 390.91143 267.992474 
L 391.637988 268.215419 
L 392.364547 268.305908 
L 393.091105 268.25567 
L 393.817663 267.964662 
L 394.544222 267.828754 
L 395.27078 267.51657 
L 396.723897 267.711927 
L 397.450455 268.03146 
L 398.177014 267.92942 
L 398.903572 268.140176 
L 399.63013 267.999828 
L 401.809805 268.213556 
L 402.536364 268.428426 
L 403.989481 268.416902 
L 405.442597 268.475519 
L 406.169156 268.354385 
L 406.895714 268.491156 
L 407.622272 268.369006 
L 408.348831 268.680365 
L 409.075389 268.683176 
L 409.801948 268.867655 
L 411.255064 268.565091 
L 411.981623 268.658692 
L 413.434739 269.099661 
L 414.161298 268.865666 
L 414.887856 268.77694 
L 417.79409 267.937496 
L 419.247206 267.899224 
L 419.973765 268.150963 
L 421.426882 268.466688 
L 422.15344 268.186556 
L 422.879998 268.092261 
L 423.606557 268.209204 
L 424.333115 268.471783 
L 425.786232 268.234627 
L 427.239349 268.549223 
L 427.965907 268.505372 
L 428.692465 268.585487 
L 429.419024 268.834102 
L 430.145582 268.581323 
L 430.872141 268.538699 
L 433.778374 267.77349 
L 434.504932 268.03243 
L 435.231491 268.040625 
L 435.958049 268.265747 
L 436.684608 268.002591 
L 437.411166 267.88131 
L 438.137724 267.643372 
L 440.317399 267.621795 
L 441.043958 267.624924 
L 441.770516 267.828882 
L 442.497075 267.836893 
L 443.223633 267.549179 
L 443.950191 267.671103 
L 444.67675 267.534271 
L 445.403308 267.72731 
L 446.129866 267.641357 
L 446.856425 267.827215 
L 447.582983 267.663162 
L 449.0361 268.051604 
L 449.762658 267.845343 
L 451.215775 267.880785 
L 451.942333 267.758963 
L 452.668892 267.863984 
L 453.39545 267.850531 
L 454.122009 267.590711 
L 454.848567 267.466053 
L 456.301684 267.473157 
L 457.028242 267.251191 
L 458.481359 267.417911 
L 459.207917 267.662273 
L 459.934476 267.565113 
L 460.661034 267.766748 
L 461.387592 267.629068 
L 462.114151 267.748102 
L 464.293826 267.645388 
L 465.020384 267.723905 
L 466.473501 267.421389 
L 467.926618 267.411567 
L 468.653176 267.637343 
L 470.106293 267.442204 
L 470.832851 267.230544 
L 471.55941 267.159577 
L 472.285968 266.906544 
L 473.012526 266.80863 
L 474.465643 267.117948 
L 475.91876 266.990421 
L 477.371877 266.978178 
L 478.098435 266.762928 
L 479.551552 266.754846 
L 481.004669 267.1108 
L 481.731227 266.8974 
L 483.184344 267.075935 
L 484.63746 266.922947 
L 486.090577 266.834305 
L 486.817136 266.591147 
L 488.996811 266.794473 
L 490.449927 266.669353 
L 491.903044 266.511692 
L 492.629603 266.520859 
L 493.356161 266.735475 
L 494.809278 266.971716 
L 496.262394 267.087392 
L 496.988953 266.870264 
L 498.44207 266.6415 
L 499.168628 266.787569 
L 499.895186 266.722916 
L 500.621745 266.813572 
L 501.348303 266.622505 
L 502.074861 266.821507 
L 503.527978 266.802831 
L 504.254537 267.036713 
L 504.981095 266.929615 
L 505.707653 267.043225 
L 506.434212 266.880494 
L 507.16077 266.865849 
L 508.613887 267.031452 
L 510.793562 267.120804 
L 512.973237 266.594663 
L 514.426354 266.28679 
L 517.332587 266.395722 
L 518.785704 266.563564 
L 519.512262 266.440874 
L 520.238821 266.650186 
L 521.691938 266.30839 
L 522.418496 266.531282 
L 523.145054 266.353317 
L 527.504405 266.467971 
L 528.230963 266.33957 
L 528.957521 266.398238 
L 529.68408 266.344731 
L 530.410638 266.477224 
L 531.137196 266.457368 
L 531.863755 266.607991 
L 533.316872 266.265279 
L 534.769988 266.509226 
L 535.496547 266.490537 
L 536.223105 266.308953 
L 536.949663 266.444517 
L 537.676222 266.354927 
L 538.40278 266.556328 
L 539.129339 266.381217 
L 540.582455 266.505823 
L 542.762131 266.322011 
L 545.668364 266.691193 
L 546.394922 266.5154 
L 547.121481 266.540029 
L 547.848039 266.380717 
L 548.574598 266.498471 
L 549.301156 266.331295 
L 550.754273 266.666312 
L 551.480831 266.745869 
L 552.207389 266.69152 
L 553.660506 266.968274 
L 554.387065 266.864104 
L 555.113623 267.050583 
L 555.840181 266.993555 
L 556.56674 267.054267 
L 557.293298 266.85642 
L 558.019856 267.026137 
L 559.472973 266.870284 
L 560.199532 266.682519 
L 561.652648 266.835048 
L 562.379207 266.623612 
L 564.558882 266.616289 
L 565.28544 266.539996 
L 566.011999 266.746858 
L 566.738557 266.711664 
L 568.191674 266.372258 
L 572.551024 266.775366 
L 573.277582 266.639069 
L 574.004141 266.718111 
L 574.730699 266.517557 
L 576.183816 266.809747 
L 576.910374 266.896222 
L 577.636933 266.746115 
L 579.816608 266.836329 
L 582.722841 266.188259 
L 583.4494 266.068063 
L 586.355633 266.703008 
L 589.261867 266.430455 
L 589.988425 266.262096 
L 590.714983 266.249447 
L 591.441542 266.388995 
L 592.1681 266.204957 
L 594.347775 266.266167 
L 595.074334 266.367253 
L 596.52745 266.239886 
L 597.254009 266.154655 
L 598.707126 266.421688 
L 599.433684 266.478661 
L 602.339917 266.094705 
L 603.793034 266.396158 
L 604.519593 266.510532 
L 605.246151 266.317179 
L 605.972709 266.416444 
L 606.699268 266.297344 
L 608.152384 266.540896 
L 608.878943 266.390138 
L 609.605501 266.558248 
L 610.33206 266.586105 
L 611.785176 266.90006 
L 615.417968 266.63913 
L 618.324202 266.778545 
L 619.05076 266.645322 
L 619.777318 266.790474 
L 621.230435 266.765006 
L 621.956994 266.688692 
L 622.683552 266.848331 
L 624.863227 266.747533 
L 629.949136 266.851226 
L 633.581928 267.201903 
L 634.308486 267.206309 
L 635.035044 267.359854 
L 635.761603 267.357459 
L 637.941278 267.636434 
L 640.847511 267.448146 
L 641.57407 267.613217 
L 643.027186 267.692115 
L 643.753745 267.753343 
L 644.480303 267.927154 
L 646.659978 267.490229 
L 647.386537 267.640755 
L 649.566212 267.487443 
L 651.019329 267.716119 
L 652.472445 267.725569 
L 658.284912 267.417361 
L 659.011471 267.449102 
L 659.738029 267.600498 
L 660.464588 267.545061 
L 661.917704 267.810583 
L 662.644263 267.666061 
L 664.097379 267.888047 
L 664.823938 267.725278 
L 665.550496 267.847609 
L 669.909846 267.889973 
L 670.636405 267.988076 
L 671.362963 267.875809 
L 672.089522 267.904393 
L 674.269197 267.499816 
L 675.722313 267.826441 
L 677.901989 267.711581 
L 678.628547 267.587892 
L 679.355105 267.759365 
L 680.081664 267.670924 
L 681.53478 267.758108 
L 682.261339 267.635971 
L 682.987897 267.803051 
L 684.441014 267.919335 
L 686.620689 267.560204 
L 688.073806 267.79651 
L 689.526923 267.65673 
L 690.253481 267.638802 
L 690.980039 267.803055 
L 698.972181 267.877332 
L 701.151857 268.097945 
L 701.878415 267.929908 
L 704.05809 267.889712 
L 704.784648 267.875219 
L 705.511207 267.976678 
L 706.964324 267.765502 
L 709.143999 267.639659 
L 710.597115 267.895763 
L 712.050232 267.949389 
L 713.503349 268.085167 
L 715.683024 267.880106 
L 720.768933 267.915797 
L 721.495491 267.759561 
L 722.22205 267.845522 
L 722.948608 267.818882 
L 723.675166 267.665551 
L 725.128283 267.79086 
L 727.307958 267.488503 
L 728.034517 267.64808 
L 730.214192 267.665326 
L 731.667308 267.57766 
L 733.846984 267.543263 
L 736.753217 267.878924 
L 738.206334 267.790231 
L 738.932892 267.841128 
L 739.659451 267.77183 
L 741.112567 267.933062 
L 741.839126 267.780355 
L 742.565684 267.766283 
L 743.292242 267.62167 
L 744.745359 267.864235 
L 747.651593 267.706294 
L 748.378151 267.640064 
L 749.104709 267.733854 
L 749.831268 267.662886 
L 750.557826 267.783061 
L 752.010943 267.617216 
L 752.737501 267.75617 
L 753.46406 267.654983 
L 754.190618 267.762811 
L 756.370293 267.741093 
L 758.549968 267.92447 
L 761.456202 268.139913 
L 762.18276 268.005336 
L 766.54211 267.990838 
L 767.995227 267.915502 
L 768.721786 268.018386 
L 769.448344 267.915706 
L 770.901461 268.083035 
L 772.354578 268.19131 
L 774.534253 267.829855 
L 775.987369 267.777658 
L 777.440486 267.866378 
L 778.167045 267.895209 
L 778.893603 267.783058 
L 779.620161 267.924139 
L 781.799836 267.807517 
L 782.526395 267.886401 
L 783.252953 267.749436 
L 784.70607 267.889347 
L 785.432628 267.766627 
L 786.885745 267.942522 
L 787.612303 268.052049 
L 789.06542 267.990269 
L 789.791979 268.092529 
L 790.518537 268.012199 
L 791.245095 268.098404 
L 793.42477 267.874253 
L 794.151329 267.804738 
L 794.877887 267.893081 
L 796.331004 267.843745 
L 797.057562 267.830354 
L 797.784121 267.693126 
L 799.237237 267.680707 
L 800.690354 267.716621 
L 801.416913 267.5717 
L 804.323146 267.59903 
L 807.22938 267.678267 
L 809.409055 268.028157 
L 810.135613 267.946836 
L 811.58873 268.169875 
L 813.041847 267.954574 
L 813.041847 267.954574 
" clip-path="url(#p2a0f760b70)" style="fill: none; stroke: #ffa07a; stroke-opacity: 0.8; stroke-width: 2; stroke-linecap: square"/>
   </g>
   <g id="line2d_28">
    <path d="M 50.918438 266.893673 
L 849.333438 266.893673 
" clip-path="url(#p2a0f760b70)" style="fill: none; stroke-dasharray: 2.96,1.28; stroke-dashoffset: 0; stroke: #000000; stroke-opacity: 0.5; stroke-width: 0.8"/>
   </g>
   <g id="patch_3">
    <path d="M 50.918438 456.477812 
L 50.918438 23.837812 
" style="fill: none; stroke: #000000; stroke-width: 0.8; stroke-linejoin: miter; stroke-linecap: square"/>
   </g>
   <g id="patch_4">
    <path d="M 849.333438 456.477812 
L 849.333438 23.837812 
" style="fill: none; stroke: #000000; stroke-width: 0.8; stroke-linejoin: miter; stroke-linecap: square"/>
   </g>
   <g id="patch_5">
    <path d="M 50.918438 456.477812 
L 849.333437 456.477812 
" style="fill: none; stroke: #000000; stroke-width: 0.8; stroke-linejoin: miter; stroke-linecap: square"/>
   </g>
   <g id="patch_6">
    <path d="M 50.918438 23.837812 
L 849.333437 23.837812 
" style="fill: none; stroke: #000000; stroke-width: 0.8; stroke-linejoin: miter; stroke-linecap: square"/>
   </g>
   <g id="text_15">
    <!-- Cumulative Relative Rounding Error Progression -->
    <g transform="translate(258.84 17.837812) scale(0.14 -0.14)">
     <defs>
      <path id="DejaVuSans-Bold-6e" d="M 4056 2131 
L 4056 0 
L 2931 0 
L 2931 347 
L 2931 1631 
Q 2931 2084 2911 2256 
Q 2891 2428 2841 2509 
Q 2775 2619 2662 2680 
Q 2550 2741 2406 2741 
Q 2056 2741 1856 2470 
Q 1656 2200 1656 1722 
L 1656 0 
L 538 0 
L 538 3500 
L 1656 3500 
L 1656 2988 
Q 1909 3294 2193 3439 
Q 2478 3584 2822 3584 
Q 3428 3584 3742 3212 
Q 4056 2841 4056 2131 
z
" transform="scale(0.015625)"/>
      <path id="DejaVuSans-Bold-64" d="M 2919 2988 
L 2919 4863 
L 4044 4863 
L 4044 0 
L 2919 0 
L 2919 506 
Q 2688 197 2409 53 
Q 2131 -91 1766 -91 
Q 1119 -91 703 423 
Q 288 938 288 1747 
Q 288 2556 703 3070 
Q 1119 3584 1766 3584 
Q 2128 3584 2408 3439 
Q 2688 3294 2919 2988 
z
M 2181 722 
Q 2541 722 2730 984 
Q 2919 1247 2919 1747 
Q 2919 2247 2730 2509 
Q 2541 2772 2181 2772 
Q 1825 2772 1636 2509 
Q 1447 2247 1447 1747 
Q 1447 1247 1636 984 
Q 1825 722 2181 722 
z
" transform="scale(0.015625)"/>
      <path id="DejaVuSans-Bold-67" d="M 2919 594 
Q 2688 288 2409 144 
Q 2131 0 1766 0 
Q 1125 0 706 504 
Q 288 1009 288 1791 
Q 288 2575 706 3076 
Q 1125 3578 1766 3578 
Q 2131 3578 2409 3434 
Q 2688 3291 2919 2981 
L 2919 3500 
L 4044 3500 
L 4044 353 
Q 4044 -491 3511 -936 
Q 2978 -1381 1966 -1381 
Q 1638 -1381 1331 -1331 
Q 1025 -1281 716 -1178 
L 716 -306 
Q 1009 -475 1290 -558 
Q 1572 -641 1856 -641 
Q 2406 -641 2662 -400 
Q 2919 -159 2919 353 
L 2919 594 
z
M 2181 2772 
Q 1834 2772 1640 2515 
Q 1447 2259 1447 1791 
Q 1447 1309 1634 1061 
Q 1822 813 2181 813 
Q 2531 813 2725 1069 
Q 2919 1325 2919 1791 
Q 2919 2259 2725 2515 
Q 2531 2772 2181 2772 
z
" transform="scale(0.015625)"/>
      <path id="DejaVuSans-Bold-50" d="M 588 4666 
L 2584 4666 
Q 3475 4666 3951 4270 
Q 4428 3875 4428 3144 
Q 4428 2409 3951 2014 
Q 3475 1619 2584 1619 
L 1791 1619 
L 1791 0 
L 588 0 
L 588 4666 
z
M 1791 3794 
L 1791 2491 
L 2456 2491 
Q 2806 2491 2997 2661 
Q 3188 2831 3188 3144 
Q 3188 3456 2997 3625 
Q 2806 3794 2456 3794 
L 1791 3794 
z
" transform="scale(0.015625)"/>
     </defs>
     <use xlink:href="#DejaVuSans-Bold-43"/>
     <use xlink:href="#DejaVuSans-Bold-75" transform="translate(73.388672 0)"/>
     <use xlink:href="#DejaVuSans-Bold-6d" transform="translate(144.580078 0)"/>
     <use xlink:href="#DejaVuSans-Bold-75" transform="translate(248.779297 0)"/>
     <use xlink:href="#DejaVuSans-Bold-6c" transform="translate(319.970703 0)"/>
     <use xlink:href="#DejaVuSans-Bold-61" transform="translate(354.248047 0)"/>
     <use xlink:href="#DejaVuSans-Bold-74" transform="translate(421.728516 0)"/>
     <use xlink:href="#DejaVuSans-Bold-69" transform="translate(469.53125 0)"/>
     <use xlink:href="#DejaVuSans-Bold-76" transform="translate(503.808594 0)"/>
     <use xlink:href="#DejaVuSans-Bold-65" transform="translate(568.994141 0)"/>
     <use xlink:href="#DejaVuSans-Bold-20" transform="translate(636.816406 0)"/>
     <use xlink:href="#DejaVuSans-Bold-52" transform="translate(671.630859 0)"/>
     <use xlink:href="#DejaVuSans-Bold-65" transform="translate(748.632812 0)"/>
     <use xlink:href="#DejaVuSans-Bold-6c" transform="translate(816.455078 0)"/>
     <use xlink:href="#DejaVuSans-Bold-61" transform="translate(850.732422 0)"/>
     <use xlink:href="#DejaVuSans-Bold-74" transform="translate(918.212891 0)"/>
     <use xlink:href="#DejaVuSans-Bold-69" transform="translate(966.015625 0)"/>
     <use xlink:href="#DejaVuSans-Bold-76" transform="translate(1000.292969 0)"/>
     <use xlink:href="#DejaVuSans-Bold-65" transform="translate(1065.478516 0)"/>
     <use xlink:href="#DejaVuSans-Bold-20" transform="translate(1133.300781 0)"/>
     <use xlink:href="#DejaVuSans-Bold-52" transform="translate(1168.115234 0)"/>
     <use xlink:href="#DejaVuSans-Bold-6f" transform="translate(1245.117188 0)"/>
     <use xlink:href="#DejaVuSans-Bold-75" transform="translate(1313.818359 0)"/>
     <use xlink:href="#DejaVuSans-Bold-6e" transform="translate(1385.009766 0)"/>
     <use xlink:href="#DejaVuSans-Bold-64" transform="translate(1456.201172 0)"/>
     <use xlink:href="#DejaVuSans-Bold-69" transform="translate(1527.783203 0)"/>
     <use xlink:href="#DejaVuSans-Bold-6e" transform="translate(1562.060547 0)"/>
     <use xlink:href="#DejaVuSans-Bold-67" transform="translate(1633.251953 0)"/>
     <use xlink:href="#DejaVuSans-Bold-20" transform="translate(1704.833984 0)"/>
     <use xlink:href="#DejaVuSans-Bold-45" transform="translate(1739.648438 0)"/>
     <use xlink:href="#DejaVuSans-Bold-72" transform="translate(1807.958984 0)"/>
     <use xlink:href="#DejaVuSans-Bold-72" transform="translate(1857.275391 0)"/>
     <use xlink:href="#DejaVuSans-Bold-6f" transform="translate(1906.591797 0)"/>
     <use xlink:href="#DejaVuSans-Bold-72" transform="translate(1975.292969 0)"/>
     <use xlink:href="#DejaVuSans-Bold-20" transform="translate(2024.609375 0)"/>
     <use xlink:href="#DejaVuSans-Bold-50" transform="translate(2059.423828 0)"/>
     <use xlink:href="#DejaVuSans-Bold-72" transform="translate(2132.714844 0)"/>
     <use xlink:href="#DejaVuSans-Bold-6f" transform="translate(2182.03125 0)"/>
     <use xlink:href="#DejaVuSans-Bold-67" transform="translate(2250.732422 0)"/>
     <use xlink:href="#DejaVuSans-Bold-72" transform="translate(2322.314453 0)"/>
     <use xlink:href="#DejaVuSans-Bold-65" transform="translate(2371.630859 0)"/>
     <use xlink:href="#DejaVuSans-Bold-73" transform="translate(2439.453125 0)"/>
     <use xlink:href="#DejaVuSans-Bold-73" transform="translate(2498.974609 0)"/>
     <use xlink:href="#DejaVuSans-Bold-69" transform="translate(2558.496094 0)"/>
     <use xlink:href="#DejaVuSans-Bold-6f" transform="translate(2592.773438 0)"/>
     <use xlink:href="#DejaVuSans-Bold-6e" transform="translate(2661.474609 0)"/>
    </g>
   </g>
   <g id="legend_1">
    <g id="patch_7">
     <path d="M 732.912188 81.075625 
L 841.633437 81.075625 
Q 843.833437 81.075625 843.833437 78.875625 
L 843.833437 31.537812 
Q 843.833437 29.337812 841.633437 29.337812 
L 732.912188 29.337812 
Q 730.712188 29.337812 730.712188 31.537812 
L 730.712188 78.875625 
Q 730.712188 81.075625 732.912188 81.075625 
z
" style="fill: #ffffff; opacity: 0.9; stroke: #cccccc; stroke-linejoin: miter"/>
    </g>
    <g id="line2d_29">
     <path d="M 735.112188 38.246094 
L 746.112188 38.246094 
L 757.112188 38.246094 
" style="fill: none; stroke: #4ecdc4; stroke-opacity: 0.8; stroke-width: 2; stroke-linecap: square"/>
    </g>
    <g id="text_16">
     <!-- Round Up -->
     <g transform="translate(765.912187 42.096094) scale(0.11 -0.11)">
      <defs>
       <path id="DejaVuSans-52" d="M 2841 2188 
Q 3044 2119 3236 1894 
Q 3428 1669 3622 1275 
L 4263 0 
L 3584 0 
L 2988 1197 
Q 2756 1666 2539 1819 
Q 2322 1972 1947 1972 
L 1259 1972 
L 1259 0 
L 628 0 
L 628 4666 
L 2053 4666 
Q 2853 4666 3247 4331 
Q 3641 3997 3641 3322 
Q 3641 2881 3436 2590 
Q 3231 2300 2841 2188 
z
M 1259 4147 
L 1259 2491 
L 2053 2491 
Q 2509 2491 2742 2702 
Q 2975 2913 2975 3322 
Q 2975 3731 2742 3939 
Q 2509 4147 2053 4147 
L 1259 4147 
z
" transform="scale(0.015625)"/>
       <path id="DejaVuSans-6f" d="M 1959 3097 
Q 1497 3097 1228 2736 
Q 959 2375 959 1747 
Q 959 1119 1226 758 
Q 1494 397 1959 397 
Q 2419 397 2687 759 
Q 2956 1122 2956 1747 
Q 2956 2369 2687 2733 
Q 2419 3097 1959 3097 
z
M 1959 3584 
Q 2709 3584 3137 3096 
Q 3566 2609 3566 1747 
Q 3566 888 3137 398 
Q 2709 -91 1959 -91 
Q 1206 -91 779 398 
Q 353 888 353 1747 
Q 353 2609 779 3096 
Q 1206 3584 1959 3584 
z
" transform="scale(0.015625)"/>
       <path id="DejaVuSans-75" d="M 544 1381 
L 544 3500 
L 1119 3500 
L 1119 1403 
Q 1119 906 1312 657 
Q 1506 409 1894 409 
Q 2359 409 2629 706 
Q 2900 1003 2900 1516 
L 2900 3500 
L 3475 3500 
L 3475 0 
L 2900 0 
L 2900 538 
Q 2691 219 2414 64 
Q 2138 -91 1772 -91 
Q 1169 -91 856 284 
Q 544 659 544 1381 
z
M 1991 3584 
L 1991 3584 
z
" transform="scale(0.015625)"/>
       <path id="DejaVuSans-6e" d="M 3513 2113 
L 3513 0 
L 2938 0 
L 2938 2094 
Q 2938 2591 2744 2837 
Q 2550 3084 2163 3084 
Q 1697 3084 1428 2787 
Q 1159 2491 1159 1978 
L 1159 0 
L 581 0 
L 581 3500 
L 1159 3500 
L 1159 2956 
Q 1366 3272 1645 3428 
Q 1925 3584 2291 3584 
Q 2894 3584 3203 3211 
Q 3513 2838 3513 2113 
z
" transform="scale(0.015625)"/>
       <path id="DejaVuSans-64" d="M 2906 2969 
L 2906 4863 
L 3481 4863 
L 3481 0 
L 2906 0 
L 2906 525 
Q 2725 213 2448 61 
Q 2172 -91 1784 -91 
Q 1150 -91 751 415 
Q 353 922 353 1747 
Q 353 2572 751 3078 
Q 1150 3584 1784 3584 
Q 2172 3584 2448 3432 
Q 2725 3281 2906 2969 
z
M 947 1747 
Q 947 1113 1208 752 
Q 1469 391 1925 391 
Q 2381 391 2643 752 
Q 2906 1113 2906 1747 
Q 2906 2381 2643 2742 
Q 2381 3103 1925 3103 
Q 1469 3103 1208 2742 
Q 947 2381 947 1747 
z
" transform="scale(0.015625)"/>
       <path id="DejaVuSans-20" transform="scale(0.015625)"/>
       <path id="DejaVuSans-55" d="M 556 4666 
L 1191 4666 
L 1191 1831 
Q 1191 1081 1462 751 
Q 1734 422 2344 422 
Q 2950 422 3222 751 
Q 3494 1081 3494 1831 
L 3494 4666 
L 4128 4666 
L 4128 1753 
Q 4128 841 3676 375 
Q 3225 -91 2344 -91 
Q 1459 -91 1007 375 
Q 556 841 556 1753 
L 556 4666 
z
" transform="scale(0.015625)"/>
       <path id="DejaVuSans-70" d="M 1159 525 
L 1159 -1331 
L 581 -1331 
L 581 3500 
L 1159 3500 
L 1159 2969 
Q 1341 3281 1617 3432 
Q 1894 3584 2278 3584 
Q 2916 3584 3314 3078 
Q 3713 2572 3713 1747 
Q 3713 922 3314 415 
Q 2916 -91 2278 -91 
Q 1894 -91 1617 61 
Q 1341 213 1159 525 
z
M 3116 1747 
Q 3116 2381 2855 2742 
Q 2594 3103 2138 3103 
Q 1681 3103 1420 2742 
Q 1159 2381 1159 1747 
Q 1159 1113 1420 752 
Q 1681 391 2138 391 
Q 2594 391 2855 752 
Q 3116 1113 3116 1747 
z
" transform="scale(0.015625)"/>
      </defs>
      <use xlink:href="#DejaVuSans-52"/>
      <use xlink:href="#DejaVuSans-6f" transform="translate(64.982422 0)"/>
      <use xlink:href="#DejaVuSans-75" transform="translate(126.164062 0)"/>
      <use xlink:href="#DejaVuSans-6e" transform="translate(189.542969 0)"/>
      <use xlink:href="#DejaVuSans-64" transform="translate(252.921875 0)"/>
      <use xlink:href="#DejaVuSans-20" transform="translate(316.398438 0)"/>
      <use xlink:href="#DejaVuSans-55" transform="translate(348.185547 0)"/>
      <use xlink:href="#DejaVuSans-70" transform="translate(421.378906 0)"/>
     </g>
    </g>
    <g id="line2d_30">
     <path d="M 735.112188 54.392031 
L 746.112188 54.392031 
L 757.112188 54.392031 
" style="fill: none; stroke: #45b7d1; stroke-opacity: 0.8; stroke-width: 2; stroke-linecap: square"/>
    </g>
    <g id="text_17">
     <!-- Round Down -->
     <g transform="translate(765.912187 58.242031) scale(0.11 -0.11)">
      <defs>
       <path id="DejaVuSans-44" d="M 1259 4147 
L 1259 519 
L 2022 519 
Q 2988 519 3436 956 
Q 3884 1394 3884 2338 
Q 3884 3275 3436 3711 
Q 2988 4147 2022 4147 
L 1259 4147 
z
M 628 4666 
L 1925 4666 
Q 3281 4666 3915 4102 
Q 4550 3538 4550 2338 
Q 4550 1131 3912 565 
Q 3275 0 1925 0 
L 628 0 
L 628 4666 
z
" transform="scale(0.015625)"/>
       <path id="DejaVuSans-77" d="M 269 3500 
L 844 3500 
L 1563 769 
L 2278 3500 
L 2956 3500 
L 3675 769 
L 4391 3500 
L 4966 3500 
L 4050 0 
L 3372 0 
L 2619 2869 
L 1863 0 
L 1184 0 
L 269 3500 
z
" transform="scale(0.015625)"/>
      </defs>
      <use xlink:href="#DejaVuSans-52"/>
      <use xlink:href="#DejaVuSans-6f" transform="translate(64.982422 0)"/>
      <use xlink:href="#DejaVuSans-75" transform="translate(126.164062 0)"/>
      <use xlink:href="#DejaVuSans-6e" transform="translate(189.542969 0)"/>
      <use xlink:href="#DejaVuSans-64" transform="translate(252.921875 0)"/>
      <use xlink:href="#DejaVuSans-20" transform="translate(316.398438 0)"/>
      <use xlink:href="#DejaVuSans-44" transform="translate(348.185547 0)"/>
      <use xlink:href="#DejaVuSans-6f" transform="translate(425.1875 0)"/>
      <use xlink:href="#DejaVuSans-77" transform="translate(486.369141 0)"/>
      <use xlink:href="#DejaVuSans-6e" transform="translate(568.15625 0)"/>
     </g>
    </g>
    <g id="line2d_31">
     <path d="M 735.112188 70.537969 
L 746.112188 70.537969 
L 757.112188 70.537969 
" style="fill: none; stroke: #ffa07a; stroke-opacity: 0.8; stroke-width: 2; stroke-linecap: square"/>
    </g>
    <g id="text_18">
     <!-- Nearest Even -->
     <g transform="translate(765.912187 74.387969) scale(0.11 -0.11)">
      <defs>
       <path id="DejaVuSans-4e" d="M 628 4666 
L 1478 4666 
L 3547 763 
L 3547 4666 
L 4159 4666 
L 4159 0 
L 3309 0 
L 1241 3903 
L 1241 0 
L 628 0 
L 628 4666 
z
" transform="scale(0.015625)"/>
       <path id="DejaVuSans-65" d="M 3597 1894 
L 3597 1613 
L 953 1613 
Q 991 1019 1311 708 
Q 1631 397 2203 397 
Q 2534 397 2845 478 
Q 3156 559 3463 722 
L 3463 178 
Q 3153 47 2828 -22 
Q 2503 -91 2169 -91 
Q 1331 -91 842 396 
Q 353 884 353 1716 
Q 353 2575 817 3079 
Q 1281 3584 2069 3584 
Q 2775 3584 3186 3129 
Q 3597 2675 3597 1894 
z
M 3022 2063 
Q 3016 2534 2758 2815 
Q 2500 3097 2075 3097 
Q 1594 3097 1305 2825 
Q 1016 2553 972 2059 
L 3022 2063 
z
" transform="scale(0.015625)"/>
       <path id="DejaVuSans-61" d="M 2194 1759 
Q 1497 1759 1228 1600 
Q 959 1441 959 1056 
Q 959 750 1161 570 
Q 1363 391 1709 391 
Q 2188 391 2477 730 
Q 2766 1069 2766 1631 
L 2766 1759 
L 2194 1759 
z
M 3341 1997 
L 3341 0 
L 2766 0 
L 2766 531 
Q 2569 213 2275 61 
Q 1981 -91 1556 -91 
Q 1019 -91 701 211 
Q 384 513 384 1019 
Q 384 1609 779 1909 
Q 1175 2209 1959 2209 
L 2766 2209 
L 2766 2266 
Q 2766 2663 2505 2880 
Q 2244 3097 1772 3097 
Q 1472 3097 1187 3025 
Q 903 2953 641 2809 
L 641 3341 
Q 956 3463 1253 3523 
Q 1550 3584 1831 3584 
Q 2591 3584 2966 3190 
Q 3341 2797 3341 1997 
z
" transform="scale(0.015625)"/>
       <path id="DejaVuSans-72" d="M 2631 2963 
Q 2534 3019 2420 3045 
Q 2306 3072 2169 3072 
Q 1681 3072 1420 2755 
Q 1159 2438 1159 1844 
L 1159 0 
L 581 0 
L 581 3500 
L 1159 3500 
L 1159 2956 
Q 1341 3275 1631 3429 
Q 1922 3584 2338 3584 
Q 2397 3584 2469 3576 
Q 2541 3569 2628 3553 
L 2631 2963 
z
" transform="scale(0.015625)"/>
       <path id="DejaVuSans-73" d="M 2834 3397 
L 2834 2853 
Q 2591 2978 2328 3040 
Q 2066 3103 1784 3103 
Q 1356 3103 1142 2972 
Q 928 2841 928 2578 
Q 928 2378 1081 2264 
Q 1234 2150 1697 2047 
L 1894 2003 
Q 2506 1872 2764 1633 
Q 3022 1394 3022 966 
Q 3022 478 2636 193 
Q 2250 -91 1575 -91 
Q 1294 -91 989 -36 
Q 684 19 347 128 
L 347 722 
Q 666 556 975 473 
Q 1284 391 1588 391 
Q 1994 391 2212 530 
Q 2431 669 2431 922 
Q 2431 1156 2273 1281 
Q 2116 1406 1581 1522 
L 1381 1569 
Q 847 1681 609 1914 
Q 372 2147 372 2553 
Q 372 3047 722 3315 
Q 1072 3584 1716 3584 
Q 2034 3584 2315 3537 
Q 2597 3491 2834 3397 
z
" transform="scale(0.015625)"/>
       <path id="DejaVuSans-74" d="M 1172 4494 
L 1172 3500 
L 2356 3500 
L 2356 3053 
L 1172 3053 
L 1172 1153 
Q 1172 725 1289 603 
Q 1406 481 1766 481 
L 2356 481 
L 2356 0 
L 1766 0 
Q 1100 0 847 248 
Q 594 497 594 1153 
L 594 3053 
L 172 3053 
L 172 3500 
L 594 3500 
L 594 4494 
L 1172 4494 
z
" transform="scale(0.015625)"/>
       <path id="DejaVuSans-45" d="M 628 4666 
L 3578 4666 
L 3578 4134 
L 1259 4134 
L 1259 2753 
L 3481 2753 
L 3481 2222 
L 1259 2222 
L 1259 531 
L 3634 531 
L 3634 0 
L 628 0 
L 628 4666 
z
" transform="scale(0.015625)"/>
       <path id="DejaVuSans-76" d="M 191 3500 
L 800 3500 
L 1894 563 
L 2988 3500 
L 3597 3500 
L 2284 0 
L 1503 0 
L 191 3500 
z
" transform="scale(0.015625)"/>
      </defs>
      <use xlink:href="#DejaVuSans-4e"/>
      <use xlink:href="#DejaVuSans-65" transform="translate(74.804688 0)"/>
      <use xlink:href="#DejaVuSans-61" transform="translate(136.328125 0)"/>
      <use xlink:href="#DejaVuSans-72" transform="translate(197.607422 0)"/>
      <use xlink:href="#DejaVuSans-65" transform="translate(236.470703 0)"/>
      <use xlink:href="#DejaVuSans-73" transform="translate(297.994141 0)"/>
      <use xlink:href="#DejaVuSans-74" transform="translate(350.09375 0)"/>
      <use xlink:href="#DejaVuSans-20" transform="translate(389.302734 0)"/>
      <use xlink:href="#DejaVuSans-45" transform="translate(421.089844 0)"/>
      <use xlink:href="#DejaVuSans-76" transform="translate(484.273438 0)"/>
      <use xlink:href="#DejaVuSans-65" transform="translate(543.453125 0)"/>
      <use xlink:href="#DejaVuSans-6e" transform="translate(604.976562 0)"/>
     </g>
    </g>
   </g>
  </g>
 </g>
 <defs>
  <clipPath id="p2a0f760b70">
   <rect x="50.918438" y="23.837812" width="798.415" height="432.64"/>
  </clipPath>
 </defs>
</svg>
